<svg width="186" height="170" viewBox="0 0 186 170" fill="none" xmlns="http://www.w3.org/2000/svg">
<path fill-rule="evenodd" clip-rule="evenodd" d="M102.383 0.0810469C118.702 -1.00048 133.384 8.88181 146.61 21.3758C163.202 37.049 184.29 52.3571 185.891 78.9666C187.534 106.28 170.336 128.877 154.131 146.35C139.56 162.062 121.256 167.306 102.383 169.009C81.5591 170.888 60.1963 171.659 42.9292 156.386C22.0075 137.879 -4.28176 111.285 0.590018 78.9666C5.50436 46.3663 40.5159 43.9448 62.4404 26.9542C75.8283 16.5792 86.8242 1.11225 102.383 0.0810469Z" fill="#144F7C"/>
<path d="M141.501 87.2189C141.275 86.9995 140.97 86.8791 140.655 86.8839C140.34 86.8888 140.039 87.0186 139.82 87.2449L138.173 88.9433C136.06 91.1238 134.576 93.8354 133.878 96.7907L132.851 101.145C132.579 102.31 132.161 103.436 131.607 104.496C127.966 111.409 122.567 116.878 119.673 119.522C118.491 120.603 116.948 121.205 115.347 121.209C107.418 121.239 100.443 120.976 96.8169 120.806L98.7769 118.831C98.999 118.607 99.1231 118.304 99.1219 117.989C99.1208 117.674 98.9944 117.372 98.7706 117.15C98.5468 116.928 98.2439 116.803 97.9286 116.805C97.6133 116.806 97.3114 116.932 97.0893 117.156L93.2739 121L90.4411 123.635C90.0534 123.983 89.6037 124.254 89.1157 124.435C88.9693 124.49 88.8351 124.572 88.7208 124.679C88.6064 124.785 88.514 124.913 88.449 125.055C88.384 125.197 88.3476 125.35 88.3418 125.506C88.3361 125.662 88.3611 125.818 88.4155 125.964C88.4699 126.11 88.5526 126.244 88.6588 126.359C88.7651 126.473 88.8928 126.566 89.0348 126.631C89.1767 126.696 89.3301 126.732 89.4861 126.738C89.6421 126.744 89.7977 126.719 89.9441 126.664C90.7174 126.376 91.4295 125.945 92.0427 125.393L94.5385 123.071C96.6771 123.19 105.253 123.625 115.355 123.587C117.548 123.581 119.659 122.757 121.277 121.278C124.285 118.529 129.901 112.838 133.711 105.604C134.359 104.366 134.847 103.051 135.165 101.691L136.192 97.3367C136.792 94.799 138.066 92.4706 139.881 90.5983L141.527 88.8999C141.747 88.6735 141.867 88.3692 141.862 88.054C141.857 87.7387 141.727 87.4384 141.501 87.2189Z" fill="white"/>
<path d="M98.3297 81.5013C96.7325 82.9997 94.2897 85.2647 91.7215 87.5453C91.6031 87.6485 91.5063 87.7741 91.4367 87.9149C91.3671 88.0557 91.3261 88.2089 91.3161 88.3657C91.3061 88.5224 91.3272 88.6796 91.3783 88.8281C91.4293 88.9767 91.5093 89.1136 91.6136 89.231C91.7179 89.3485 91.8445 89.4441 91.9859 89.5123C92.1274 89.5806 92.281 89.6201 92.4378 89.6286C92.5946 89.6372 92.7516 89.6146 92.8997 89.5621C93.0477 89.5096 93.1839 89.4283 93.3003 89.3229C95.8883 87.0247 98.3483 84.7429 99.9565 83.2353C101.49 81.7912 103.415 80.8297 105.491 80.4701C109.793 79.7186 113.98 78.4102 117.945 76.5779C119.772 75.7334 121.462 74.6211 122.961 73.2779C133.058 64.1913 141.332 51.1435 141.678 50.5925C141.846 50.3258 141.902 50.0032 141.832 49.6957C141.762 49.3882 141.573 49.121 141.307 48.9529C141.04 48.7848 140.717 48.7295 140.41 48.7992C140.102 48.8689 139.835 49.058 139.667 49.3247C139.584 49.4569 131.217 62.6493 121.37 71.5113C120.046 72.6962 118.554 73.6772 116.941 74.4219C113.166 76.1664 109.18 77.412 105.084 78.1273C102.551 78.566 100.202 79.7392 98.3297 81.5013Z" fill="white"/>
<path d="M96.9751 95.0579L98.2351 92.7075C98.382 92.4299 98.413 92.1054 98.3213 91.805C98.2297 91.5045 98.0229 91.2526 97.7461 91.1041C97.4694 90.9557 97.1451 90.9228 96.8441 91.0126C96.5431 91.1025 96.29 91.3078 96.1399 91.5837L95.3349 93.0837C82.7029 89.1681 72.0985 77.4483 68.0639 72.5023C66.4979 70.5823 65.0329 68.8459 63.5849 67.1927L46.6185 47.8201C46.4099 47.5859 46.1173 47.4436 45.8043 47.4242C45.4912 47.4047 45.1832 47.5098 44.9473 47.7164C44.7114 47.9231 44.5667 48.2146 44.5448 48.5274C44.5228 48.8403 44.6254 49.1491 44.8301 49.3867L61.7973 68.7585C63.2269 70.3907 64.6743 72.1067 66.2225 74.0045C70.3513 79.0655 81.1447 90.9899 94.2087 95.2245L87.9795 107.205C76.6239 109.754 71.9945 102.529 71.3887 101.476C70.7123 99.9806 69.8069 98.5994 68.7049 97.3827C68.5969 97.2666 68.4668 97.1733 68.3221 97.1083C68.1775 97.0432 68.0214 97.0078 67.8628 97.004C67.7043 97.0002 67.5466 97.0282 67.3991 97.0863C67.2515 97.1444 67.1171 97.2314 67.0037 97.3422C66.8903 97.453 66.8002 97.5854 66.7387 97.7316C66.6772 97.8778 66.6456 98.0348 66.6457 98.1933C66.6459 98.3519 66.6777 98.5088 66.7394 98.6549C66.8011 98.801 66.8913 98.9333 67.0049 99.0439C67.0527 99.0931 71.7783 104.036 70.4113 111.667C70.3798 111.822 70.3796 111.982 70.4108 112.138C70.442 112.293 70.5039 112.44 70.5929 112.571C70.6819 112.703 70.7962 112.814 70.929 112.901C71.0618 112.987 71.2106 113.046 71.3665 113.074C71.5224 113.102 71.6823 113.098 71.8369 113.064C71.9915 113.029 72.1375 112.964 72.2665 112.872C72.3955 112.78 72.5049 112.663 72.5881 112.528C72.6714 112.394 72.7269 112.244 72.7513 112.087C73.0789 110.29 73.1272 108.452 72.8945 106.64C73.1799 106.865 73.4783 107.089 73.8001 107.308C75.8753 108.718 79.0401 110.124 83.4043 110.124C84.4694 110.121 85.5329 110.041 86.5865 109.884L81.5227 119.623C80.8663 118.954 79.9813 118.071 78.9921 117.131C78.8789 117.024 78.7457 116.94 78.6 116.884C78.4543 116.828 78.299 116.801 78.1429 116.805C77.9869 116.809 77.8331 116.844 77.6905 116.907C77.5479 116.97 77.4191 117.061 77.3116 117.174C77.2041 117.288 77.1199 117.421 77.0639 117.567C77.0079 117.712 76.9811 117.868 76.9851 118.024C76.9891 118.18 77.0238 118.333 77.0872 118.476C77.1506 118.619 77.2415 118.747 77.3547 118.855C79.2347 120.642 80.7763 122.268 80.9327 122.434C81.2727 122.825 86.8353 129.408 82.7101 135.613C82.4964 135.943 82.1972 136.21 81.8442 136.384C81.4913 136.558 81.0978 136.634 80.7055 136.602C80.2973 136.579 79.9027 136.447 79.5623 136.22C79.2219 135.994 78.948 135.68 78.7687 135.313C77.2623 132.273 74.4343 127.67 69.5157 123.004C67.9405 121.532 66.2302 120.211 64.4075 119.06C61.3103 117.065 54.1569 110.68 54.6263 94.5077C54.6313 94.338 54.5998 94.1691 54.534 94.0126C54.4682 93.856 54.3696 93.7154 54.2449 93.6001C54.2161 93.5735 51.3157 90.8947 46.5221 86.5443C46.4073 86.4351 46.2718 86.35 46.1236 86.2939C45.9754 86.2378 45.8175 86.2119 45.6592 86.2177C45.5009 86.2236 45.3453 86.261 45.2016 86.3278C45.058 86.3946 44.9291 86.4894 44.8226 86.6067C44.7161 86.724 44.6341 86.8615 44.5815 87.0109C44.5289 87.1604 44.5067 87.3188 44.5162 87.477C44.5257 87.6351 44.5667 87.7898 44.6368 87.9319C44.7069 88.074 44.8047 88.2006 44.9245 88.3043C48.6955 91.7267 51.2919 94.1121 52.2365 94.9821C51.9113 111.969 59.7199 118.869 63.1203 121.058C64.8179 122.13 66.411 123.359 67.8785 124.729C72.5439 129.155 75.2167 133.502 76.6385 136.369C77.0011 137.112 77.555 137.745 78.2434 138.203C78.9317 138.661 79.7296 138.928 80.5551 138.976C80.6574 138.982 80.759 138.985 80.8601 138.985C81.6192 138.989 82.367 138.802 83.0359 138.443C83.7047 138.084 84.2734 137.564 84.6903 136.93C89.0209 130.416 84.7723 123.61 83.2225 121.508L96.9751 95.0579Z" fill="white"/>
<path d="M80.4308 64.3493C81.9723 65.8542 83.749 67.0976 85.6908 68.0307C90.1082 70.1343 92.1756 73.2995 92.194 73.3283C92.3012 73.4969 92.4492 73.6358 92.6243 73.7322C92.7994 73.8285 92.9959 73.8792 93.1958 73.8795H93.1994C93.3988 73.8792 93.595 73.8288 93.7699 73.7331C93.9448 73.6373 94.0929 73.4991 94.2006 73.3313C94.2206 73.2995 96.2886 70.1343 100.706 68.0313C102.648 67.0982 104.424 65.8547 105.966 64.3499C107.376 62.9824 108.426 61.2871 109.022 59.4153C110.189 55.6727 108.962 53.1365 107.728 51.6677C106.041 49.6597 103.364 48.5859 100.573 48.7963C96.789 49.0803 94.434 51.2465 93.1986 52.8341C91.9632 51.2465 89.6082 49.0803 85.8238 48.7957C83.0286 48.5849 80.356 49.6593 78.6688 51.6671C77.4344 53.1357 76.2088 55.6717 77.3748 59.4149C77.9709 61.2865 79.0207 62.9817 80.4308 64.3493ZM80.489 53.1967C81.5842 51.8935 83.2918 51.1473 85.1314 51.1473C85.3018 51.1473 85.4732 51.1539 85.6456 51.1673C90.161 51.5073 92.0444 55.3703 92.1204 55.5303C92.2158 55.7358 92.368 55.9098 92.5591 56.0317C92.7501 56.1536 92.972 56.2183 93.1986 56.2183C93.4252 56.2183 93.6471 56.1536 93.8381 56.0317C94.0291 55.9098 94.1813 55.7358 94.2768 55.5303C94.2954 55.4903 96.1944 51.5103 100.752 51.1673C102.785 51.0159 104.712 51.7735 105.908 53.1975C107.148 54.6729 107.432 56.5269 106.752 58.7075C106.274 60.2036 105.433 61.558 104.304 62.6501C102.95 63.9722 101.389 65.0647 99.6838 65.8847C97.2132 67.0497 95.0065 68.7067 93.1986 70.7543C91.3906 68.7066 89.1838 67.0494 86.7132 65.8841C85.0077 65.064 83.4472 63.9715 82.0932 62.6495C80.9643 61.5574 80.1232 60.203 79.6448 58.7071C78.9648 56.5261 79.2488 54.6721 80.489 53.1967Z" fill="white"/>
</svg>
