<svg xmlns="http://www.w3.org/2000/svg" version="1.1" viewBox="-5.0 -10.0 110.0 135.0">
 <path fill="white" d="m84.344 21.094h-68.75c-4.75 0-8.5938 3.8438-8.5938 8.5938v40.625c0 4.75 3.8438 8.5938 8.5938 8.5938h68.75c4.75 0 8.5938-3.8438 8.5938-8.5938v-40.625c0-4.75-3.8438-8.5938-8.5938-8.5938zm-16.938 28.969 20.75-20.781s0.0625 0.25 0.0625 0.375v40.625c0 0.1875-0.0625 0.3125-0.09375 0.5zm16.938-24.281c0.21875 0 0.40625 0.09375 0.59375 0.125l-22.438 22.469s-0.03125 0-0.0625 0.03125 0 0.03125-0.03125 0.0625l-9.5625 9.5938c-1.5312 1.5312-4.0312 1.5312-5.5312 0l-32.188-32.188c0.15625 0 0.3125-0.09375 0.5-0.09375h68.75zm-72.562 45.031c0-0.15625-0.09375-0.3125-0.09375-0.5v-40.625c0-0.1875 0.0625-0.3125 0.09375-0.5l20.812 20.812zm3.8125 3.4062c-0.1875 0-0.3125-0.0625-0.5-0.09375l20.812-20.812 8.0625 8.0625c1.6562 1.6562 3.875 2.5 6.0625 2.5s4.4062-0.84375 6.0938-2.5l7.9688-7.9688 20.719 20.719c-0.15625 0-0.3125 0.09375-0.5 0.09375z"/>
</svg> 