<svg width="901" height="1383" viewBox="0 0 901 1383" fill="none" xmlns="http://www.w3.org/2000/svg">
<path fill-rule="evenodd" clip-rule="evenodd" d="M926.422 281.851C980.413 333.648 1005.79 400.482 1030.12 471.232C1057.4 550.524 1116 637.035 1073.47 709.301C1031 781.473 926.962 771.985 844.508 786.626C772.906 799.34 697.466 823.857 634.647 787.219C571.998 750.68 545.649 675.902 532.402 604.596C520.29 539.397 547.937 480.033 565.71 416.144C594.55 312.472 565.69 159.972 666.537 122.427C765.548 85.5657 850.182 208.711 926.422 281.851Z" fill="#26425A" fill-opacity="0.4"/>
<path fill-rule="evenodd" clip-rule="evenodd" d="M779.89 607.273C860.331 619.082 931.611 677.871 964.323 752.303C995.872 824.088 976.643 906.897 942.619 977.542C912.909 1039.23 851.919 1071.5 793.44 1107.12C726.588 1147.83 658.748 1222.42 585.396 1195.1C512.198 1167.84 519.191 1063.49 486.198 992.694C455.076 925.909 376.594 867.866 400.409 798.141C424.205 728.473 521.445 730.023 587.214 696.943C653.004 663.853 707.028 596.577 779.89 607.273Z" fill="#A1C9E8" fill-opacity="0.2"/>
<path fill-rule="evenodd" clip-rule="evenodd" d="M269.502 764.5C247.618 716.695 280.86 634.799 313.002 579.5C344.666 525.025 415.19 556.163 477.002 523.5C538.756 490.867 488.502 444 595.457 391.679C669.296 388.602 730.183 422.861 761.263 472.78C793.823 525.076 796.761 594.173 762.284 659.625C728.889 723.025 657.59 768.07 586.154 805.216C515.59 841.909 434.953 880.565 368.92 864.174C305.545 848.444 293.039 815.919 269.502 764.5Z" fill="#558F61" fill-opacity="0.2"/>
</svg>
