<svg width="32" height="32" viewBox="0 0 32 32" fill="none" xmlns="http://www.w3.org/2000/svg">
<g id="perm_identity">
<path id="Vector" d="M15.9997 8.00016C17.4663 8.00016 18.6663 9.20016 18.6663 10.6668C18.6663 12.1335 17.4663 13.3335 15.9997 13.3335C14.533 13.3335 13.333 12.1335 13.333 10.6668C13.333 9.20016 14.533 8.00016 15.9997 8.00016ZM15.9997 20.0002C19.5997 20.0002 23.733 21.7202 23.9997 22.6668V24.0002H7.99967V22.6802C8.26634 21.7202 12.3997 20.0002 15.9997 20.0002ZM15.9997 5.3335C13.053 5.3335 10.6663 7.72016 10.6663 10.6668C10.6663 13.6135 13.053 16.0002 15.9997 16.0002C18.9463 16.0002 21.333 13.6135 21.333 10.6668C21.333 7.72016 18.9463 5.3335 15.9997 5.3335ZM15.9997 17.3335C12.4397 17.3335 5.33301 19.1202 5.33301 22.6668V26.6668H26.6663V22.6668C26.6663 19.1202 19.5597 17.3335 15.9997 17.3335Z" fill="#144F7C"/>
</g>
</svg>
