<svg width="550" height="688" viewBox="0 0 550 688" fill="none" xmlns="http://www.w3.org/2000/svg">
<path fill-rule="evenodd" clip-rule="evenodd" d="M485.358 61.062C531.671 72.4472 566.978 101.255 602.963 132.554C643.293 167.632 703.214 196.712 702.768 250.16C702.323 303.539 641.869 331.459 601.018 365.82C565.544 395.659 531.712 433.237 485.358 433.033C439.128 432.83 400.75 399.948 370.711 364.807C343.244 332.675 339.586 291.093 329.035 250.16C311.914 183.738 247.378 108.752 291.083 55.8844C333.991 3.97942 419.96 44.9853 485.358 61.062Z" fill="#26425A" fill-opacity="0.4"/>
<path fill-rule="evenodd" clip-rule="evenodd" d="M357.925 161.046C421.461 167.327 479.553 210.798 507.972 267.97C535.38 323.108 523.367 388.776 499.298 445.451C478.28 494.942 431.636 522.514 387.086 552.619C336.157 587.034 285.709 648.057 227.158 629.348C168.732 610.679 170.348 528.569 141.844 474.258C114.956 423.026 51.2427 380.407 67.3382 324.832C83.4206 269.302 159.753 266.913 210.116 238.527C260.494 210.131 300.376 155.357 357.925 161.046Z" fill="#A1C9E8" fill-opacity="0.2"/>
<path fill-rule="evenodd" clip-rule="evenodd" d="M194.751 78.9549C207.014 54.9655 210.094 21.0157 241.783 16.0784C273 11.2146 301.389 43.303 333.154 57.3909C364.889 71.4656 404.15 72.4065 425.025 97.3471C448.738 125.68 453.722 160.82 443.423 189.137C432.635 218.804 406.169 242.086 369.748 249.346C334.47 256.379 294.912 242.487 258.44 226.013C222.413 209.74 182.541 190.096 168.914 158.631C155.835 128.434 181.561 104.758 194.751 78.9549Z" fill="#558F61" fill-opacity="0.2"/>
</svg>
