<svg width="80" height="74" viewBox="0 0 80 74" fill="none" xmlns="http://www.w3.org/2000/svg">
<path id="Vector" d="M40.4 62.4998L40 62.8998L39.56 62.4998C20.56 45.2598 8 33.8598 8 22.2998C8 14.2998 14 8.2998 22 8.2998C28.16 8.2998 34.16 12.2998 36.28 17.7398H43.72C45.84 12.2998 51.84 8.2998 58 8.2998C66 8.2998 72 14.2998 72 22.2998C72 33.8598 59.44 45.2598 40.4 62.4998ZM58 0.299805C51.04 0.299805 44.36 3.5398 40 8.6198C35.64 3.5398 28.96 0.299805 22 0.299805C9.68 0.299805 0 9.93981 0 22.2998C0 37.3798 13.6 49.7398 34.2 68.4198L40 73.6998L45.8 68.4198C66.4 49.7398 80 37.3798 80 22.2998C80 9.93981 70.32 0.299805 58 0.299805Z" fill="white"/>
</svg>
