<svg width="186" height="187" viewBox="0 0 186 187" fill="none" xmlns="http://www.w3.org/2000/svg">
<g clip-path="url(#clip0_293_6309)">
<path fill-rule="evenodd" clip-rule="evenodd" d="M90.6055 1.53444C120.729 -0.966229 158.488 -2.88236 175.553 19.775C192.357 42.0866 161.678 69.8204 162.382 96.8347C163.125 125.346 200.56 156.317 179.668 177.627C159.068 198.639 121.222 174.445 90.6055 170.047C67.7912 166.769 43.1287 169.488 25.8947 155.537C7.89063 140.962 1.23576 118.703 0.168887 96.8347C-0.955728 73.7825 3.30676 50.1838 19.9019 32.6961C37.6728 13.9695 63.4799 3.78622 90.6055 1.53444Z" fill="#C6BFE6"/>
<path fill-rule="evenodd" clip-rule="evenodd" d="M180.117 72.3594C189.215 95.3854 187.022 123.448 172.092 143.431C157.723 162.663 130.841 163.333 107.504 169.548C82.2243 176.281 54.3718 195.01 32.8128 180.525C11.3048 166.075 20.8636 133.441 16.1074 108.142C11.6044 84.1904 -4.92664 60.3955 6.11519 38.5199C17.7382 15.493 44.5894 1.32158 70.5673 0.248673C93.8654 -0.713554 109.295 20.7244 128.642 33.4595C147.333 45.7633 171.946 51.679 180.117 72.3594Z" fill="#144F7C"/>
<path d="M133.968 59.3889C143.591 69.0281 143.578 84.6429 133.938 94.2657L93.1714 134.964L69.3174 111.069" stroke="white" stroke-width="3" stroke-miterlimit="10" stroke-linecap="round" stroke-linejoin="round"/>
<path d="M64.676 106.19L52.473 94.1966C42.8502 84.5576 42.8636 68.9426 52.5026 59.3198C62.1416 49.697 77.7566 49.7102 87.3794 59.3494L93.2302 65.2102L99.0908 59.3594C107.223 51.2412 119.608 49.9814 129.06 55.5736" stroke="white" stroke-width="3" stroke-miterlimit="10" stroke-linecap="round" stroke-linejoin="round"/>
<path d="M118.118 82.9295L81.7503 104.216C80.2975 105.066 78.4303 104.578 77.5799 103.125L73.2979 95.8087C72.4475 94.3559 72.9359 92.4887 74.3889 91.6383L110.757 70.3521C112.21 69.5017 114.077 69.9901 114.927 71.4431L119.209 78.7591C120.059 80.2121 119.571 82.0793 118.118 82.9295Z" stroke="white" stroke-width="3" stroke-miterlimit="10" stroke-linecap="round" stroke-linejoin="round"/>
<path d="M84.1525 95.3865C84.7814 95.3865 85.2913 94.8766 85.2913 94.2477C85.2913 93.6187 84.7814 93.1089 84.1525 93.1089C83.5235 93.1089 83.0137 93.6187 83.0137 94.2477C83.0137 94.8766 83.5235 95.3865 84.1525 95.3865Z" fill="white"/>
<path d="M78.9269 95.6023C79.5558 95.6023 80.0657 95.0924 80.0657 94.4635C80.0657 93.8346 79.5558 93.3247 78.9269 93.3247C78.2979 93.3247 77.7881 93.8346 77.7881 94.4635C77.7881 95.0924 78.2979 95.6023 78.9269 95.6023Z" fill="white"/>
<path d="M81.4054 99.8367C82.0343 99.8367 82.5442 99.3268 82.5442 98.6979C82.5442 98.0689 82.0343 97.5591 81.4054 97.5591C80.7765 97.5591 80.2666 98.0689 80.2666 98.6979C80.2666 99.3268 80.7765 99.8367 81.4054 99.8367Z" fill="white"/>
<path d="M85.251 85.7561L89.9168 93.7277" stroke="white" stroke-width="3" stroke-miterlimit="10" stroke-linecap="round" stroke-linejoin="round"/>
<path d="M108.328 81.2368C108.957 81.2368 109.467 80.727 109.467 80.098C109.467 79.4691 108.957 78.9592 108.328 78.9592C107.699 78.9592 107.189 79.4691 107.189 80.098C107.189 80.727 107.699 81.2368 108.328 81.2368Z" fill="white"/>
<path d="M111.075 76.7866C111.704 76.7866 112.214 76.2768 112.214 75.6478C112.214 75.0189 111.704 74.509 111.075 74.509C110.446 74.509 109.937 75.0189 109.937 75.6478C109.937 76.2768 110.446 76.7866 111.075 76.7866Z" fill="white"/>
<path d="M113.554 81.0208C114.183 81.0208 114.693 80.5109 114.693 79.882C114.693 79.253 114.183 78.7432 113.554 78.7432C112.925 78.7432 112.415 79.253 112.415 79.882C112.415 80.5109 112.925 81.0208 113.554 81.0208Z" fill="white"/>
<path d="M100.386 76.8979L105.052 84.8695" stroke="white" stroke-width="3" stroke-miterlimit="10" stroke-linecap="round" stroke-linejoin="round"/>
<path d="M117.124 75.1965L123.876 71.1901L122.876 65.5901L128.676 64.1901L129.076 55.5901" stroke="white" stroke-width="3" stroke-miterlimit="10" stroke-linecap="round" stroke-linejoin="round"/>
<path d="M75.4788 99.5349L69.5276 99.8365L70.6758 103.99L64.6758 106.19" stroke="white" stroke-width="3" stroke-miterlimit="10" stroke-linecap="round" stroke-linejoin="round"/>
</g>
<defs>
<clipPath id="clip0_293_6309">
<rect width="186" height="186" fill="white" transform="translate(0 0.0893555)"/>
</clipPath>
</defs>
</svg>
