<svg width="186" height="186" viewBox="0 0 186 186" fill="none" xmlns="http://www.w3.org/2000/svg">
<g clip-path="url(#clip0_260_2345)">
<path fill-rule="evenodd" clip-rule="evenodd" d="M101.431 0.162371C128.347 0.758464 160.651 0.149212 175.892 22.6607C190.585 44.3624 167.22 71.8693 167.799 98.1891C168.407 125.845 199.241 158.305 179.289 177.163C159.137 196.209 124.448 179.406 97.5 173.621C79.913 169.845 42.2692 178.805 27 169.182C6.28222 156.124 6.94268 122.396 1.90234 98.1891C-3.88117 70.4132 3.56648 39.0653 23.6457 19.289C43.5438 -0.308772 73.7025 -0.451701 101.431 0.162371Z" fill="#A1C9E8"/>
<path fill-rule="evenodd" clip-rule="evenodd" d="M102.383 0.0810469C118.702 -1.00048 133.384 8.88181 146.61 21.3758C163.202 37.049 184.29 52.3571 185.891 78.9666C187.534 106.28 170.336 128.877 154.131 146.35C139.56 162.062 121.256 167.306 102.383 169.009C81.5591 170.888 60.1963 171.659 42.9292 156.386C22.0075 137.879 -4.28176 111.285 0.590018 78.9666C5.50436 46.3663 40.5159 43.9448 62.4404 26.9542C75.8283 16.5792 86.8242 1.11225 102.383 0.0810469Z" fill="#144F7C"/>
<path d="M141.502 87.2189C141.275 86.9995 140.971 86.8791 140.656 86.8839C140.341 86.8888 140.04 87.0186 139.821 87.2449L138.174 88.9433C136.061 91.1238 134.577 93.8354 133.879 96.7907L132.852 101.145C132.58 102.31 132.162 103.436 131.608 104.496C127.967 111.409 122.568 116.878 119.674 119.522C118.492 120.603 116.949 121.205 115.347 121.209C107.419 121.239 100.444 120.976 96.8177 120.806L98.7777 118.831C98.9998 118.607 99.1239 118.304 99.1227 117.989C99.1216 117.674 98.9952 117.372 98.7714 117.15C98.5476 116.928 98.2447 116.803 97.9294 116.805C97.6141 116.806 97.3122 116.932 97.0901 117.156L93.2747 121L90.4419 123.635C90.0541 123.983 89.6045 124.254 89.1165 124.435C88.9701 124.49 88.8359 124.572 88.7215 124.679C88.6072 124.785 88.5148 124.913 88.4498 125.055C88.3848 125.197 88.3484 125.35 88.3426 125.506C88.3369 125.662 88.3619 125.818 88.4163 125.964C88.4707 126.11 88.5534 126.244 88.6596 126.359C88.7659 126.473 88.8936 126.566 89.0356 126.631C89.1775 126.696 89.3309 126.732 89.4869 126.738C89.6429 126.744 89.7985 126.719 89.9449 126.664C90.7182 126.376 91.4303 125.945 92.0435 125.393L94.5393 123.071C96.6779 123.19 105.254 123.625 115.356 123.587C117.549 123.581 119.66 122.757 121.278 121.278C124.286 118.529 129.902 112.838 133.712 105.604C134.36 104.366 134.848 103.051 135.166 101.691L136.193 97.3367C136.792 94.799 138.067 92.4706 139.882 90.5983L141.528 88.8999C141.748 88.6735 141.868 88.3692 141.863 88.054C141.858 87.7387 141.728 87.4384 141.502 87.2189Z" fill="white"/>
<path d="M98.3305 81.5013C96.7333 82.9997 94.2905 85.2647 91.7223 87.5453C91.6039 87.6485 91.5071 87.7741 91.4375 87.9149C91.3679 88.0557 91.3269 88.2089 91.3169 88.3657C91.3068 88.5224 91.328 88.6796 91.379 88.8281C91.4301 88.9767 91.5101 89.1136 91.6144 89.231C91.7187 89.3485 91.8453 89.4441 91.9867 89.5123C92.1282 89.5806 92.2818 89.6201 92.4386 89.6286C92.5954 89.6372 92.7524 89.6146 92.9004 89.5621C93.0485 89.5096 93.1847 89.4283 93.3011 89.3229C95.8891 87.0247 98.3491 84.7429 99.9573 83.2353C101.491 81.7912 103.416 80.8297 105.491 80.4701C109.794 79.7186 113.981 78.4102 117.945 76.5779C119.772 75.7334 121.463 74.6211 122.962 73.2779C133.059 64.1913 141.333 51.1435 141.679 50.5925C141.847 50.3258 141.903 50.0032 141.833 49.6957C141.763 49.3882 141.574 49.121 141.307 48.9529C141.041 48.7848 140.718 48.7295 140.41 48.7992C140.103 48.8689 139.836 49.058 139.668 49.3247C139.584 49.4569 131.218 62.6493 121.37 71.5113C120.047 72.6962 118.555 73.6772 116.942 74.4219C113.167 76.1664 109.181 77.412 105.085 78.1273C102.551 78.566 100.203 79.7392 98.3305 81.5013Z" fill="white"/>
<path d="M96.9747 95.0579L98.2347 92.7075C98.3816 92.4299 98.4126 92.1054 98.321 91.805C98.2293 91.5045 98.0226 91.2526 97.7458 91.1041C97.469 90.9557 97.1447 90.9228 96.8437 91.0126C96.5428 91.1025 96.2896 91.3078 96.1395 91.5837L95.3345 93.0837C82.7025 89.1681 72.0981 77.4483 68.0635 72.5023C66.4975 70.5823 65.0325 68.8459 63.5845 67.1927L46.6181 47.8201C46.4096 47.5859 46.1169 47.4436 45.8039 47.4242C45.4909 47.4047 45.1829 47.5098 44.947 47.7164C44.7111 47.9231 44.5664 48.2146 44.5444 48.5274C44.5224 48.8403 44.625 49.1491 44.8297 49.3867L61.7969 68.7585C63.2265 70.3907 64.6739 72.1067 66.2221 74.0045C70.3509 79.0655 81.1443 90.9899 94.2083 95.2245L87.9791 107.205C76.6235 109.754 71.9941 102.529 71.3883 101.476C70.712 99.9806 69.8065 98.5994 68.7045 97.3827C68.5965 97.2666 68.4664 97.1733 68.3218 97.1083C68.1772 97.0432 68.021 97.0078 67.8625 97.004C67.7039 97.0002 67.5463 97.0282 67.3987 97.0863C67.2512 97.1444 67.1167 97.2314 67.0033 97.3422C66.8899 97.453 66.7998 97.5854 66.7383 97.7316C66.6769 97.8778 66.6453 98.0348 66.6454 98.1933C66.6455 98.3519 66.6773 98.5088 66.739 98.6549C66.8007 98.801 66.891 98.9333 67.0045 99.0439C67.0523 99.0931 71.7779 104.036 70.4109 111.667C70.3794 111.822 70.3793 111.982 70.4105 112.138C70.4416 112.293 70.5035 112.44 70.5925 112.571C70.6815 112.703 70.7958 112.814 70.9286 112.901C71.0615 112.987 71.2102 113.046 71.3661 113.074C71.5221 113.102 71.682 113.098 71.8365 113.064C71.9911 113.029 72.1372 112.964 72.2662 112.872C72.3952 112.78 72.5045 112.663 72.5878 112.528C72.671 112.394 72.7265 112.244 72.7509 112.087C73.0785 110.29 73.1268 108.452 72.8941 106.64C73.1795 106.865 73.4779 107.089 73.7997 107.308C75.8749 108.718 79.0397 110.124 83.4039 110.124C84.4691 110.121 85.5326 110.041 86.5861 109.884L81.5223 119.623C80.8659 118.954 79.9809 118.071 78.9917 117.131C78.8786 117.024 78.7453 116.94 78.5996 116.884C78.4539 116.828 78.2986 116.801 78.1426 116.805C77.9865 116.809 77.8328 116.844 77.6901 116.907C77.5475 116.97 77.4188 117.061 77.3112 117.174C77.2037 117.288 77.1196 117.421 77.0635 117.567C77.0075 117.712 76.9807 117.868 76.9847 118.024C76.9887 118.18 77.0234 118.333 77.0869 118.476C77.1503 118.619 77.2412 118.747 77.3543 118.855C79.2343 120.642 80.7759 122.268 80.9323 122.434C81.2723 122.825 86.8349 129.408 82.7097 135.613C82.496 135.943 82.1968 136.21 81.8439 136.384C81.4909 136.558 81.0975 136.634 80.7051 136.602C80.2969 136.579 79.9023 136.447 79.5619 136.22C79.2216 135.994 78.9476 135.68 78.7683 135.313C77.2619 132.273 74.4339 127.67 69.5153 123.004C67.9401 121.532 66.2298 120.211 64.4071 119.06C61.3099 117.065 54.1565 110.68 54.6259 94.5077C54.6309 94.338 54.5994 94.1691 54.5336 94.0126C54.4678 93.856 54.3693 93.7154 54.2445 93.6001C54.2157 93.5735 51.3153 90.8947 46.5217 86.5443C46.4069 86.4351 46.2715 86.35 46.1233 86.2939C45.9751 86.2378 45.8172 86.2119 45.6588 86.2177C45.5005 86.2236 45.3449 86.261 45.2013 86.3278C45.0576 86.3946 44.9287 86.4894 44.8222 86.6067C44.7157 86.724 44.6338 86.8615 44.5812 87.0109C44.5285 87.1604 44.5063 87.3188 44.5158 87.477C44.5253 87.6351 44.5663 87.7898 44.6364 87.9319C44.7066 88.074 44.8044 88.2006 44.9241 88.3043C48.6951 91.7267 51.2915 94.1121 52.2361 94.9821C51.9109 111.969 59.7195 118.869 63.1199 121.058C64.8176 122.13 66.4107 123.359 67.8781 124.729C72.5435 129.155 75.2163 133.502 76.6381 136.369C77.0007 137.112 77.5547 137.745 78.243 138.203C78.9314 138.661 79.7293 138.928 80.5547 138.976C80.657 138.982 80.7587 138.985 80.8597 138.985C81.6188 138.989 82.3667 138.802 83.0355 138.443C83.7044 138.084 84.273 137.564 84.6899 136.93C89.0205 130.416 84.7719 123.61 83.2221 121.508L96.9747 95.0579Z" fill="white"/>
<path d="M80.4316 64.3493C81.9731 65.8542 83.7498 67.0976 85.6916 68.0307C90.109 70.1343 92.1764 73.2995 92.1948 73.3283C92.302 73.4969 92.45 73.6358 92.6251 73.7322C92.8002 73.8285 92.9967 73.8792 93.1966 73.8795H93.2002C93.3996 73.8792 93.5958 73.8288 93.7707 73.7331C93.9456 73.6373 94.0937 73.4991 94.2014 73.3313C94.2214 73.2995 96.2894 70.1343 100.707 68.0313C102.649 67.0982 104.425 65.8547 105.967 64.3499C107.377 62.9824 108.427 61.2871 109.023 59.4153C110.19 55.6727 108.963 53.1365 107.729 51.6677C106.041 49.6597 103.364 48.5859 100.574 48.7963C96.7898 49.0803 94.4348 51.2465 93.1994 52.8341C91.964 51.2465 89.609 49.0803 85.8246 48.7957C83.0294 48.5849 80.3568 49.6593 78.6696 51.6671C77.4352 53.1357 76.2096 55.6717 77.3756 59.4149C77.9717 61.2865 79.0215 62.9817 80.4316 64.3493ZM80.4898 53.1967C81.585 51.8935 83.2926 51.1473 85.1322 51.1473C85.3026 51.1473 85.474 51.1539 85.6464 51.1673C90.1618 51.5073 92.0452 55.3703 92.1212 55.5303C92.2166 55.7358 92.3688 55.9098 92.5598 56.0317C92.7509 56.1536 92.9728 56.2183 93.1994 56.2183C93.426 56.2183 93.6479 56.1536 93.8389 56.0317C94.0299 55.9098 94.1821 55.7358 94.2776 55.5303C94.2962 55.4903 96.1952 51.5103 100.753 51.1673C102.786 51.0159 104.713 51.7735 105.909 53.1975C107.149 54.6729 107.433 56.5269 106.753 58.7075C106.275 60.2036 105.434 61.558 104.305 62.6501C102.951 63.9722 101.39 65.0647 99.6846 65.8847C97.214 67.0497 95.0073 68.7067 93.1994 70.7543C91.3914 68.7066 89.1846 67.0494 86.714 65.8841C85.0085 65.064 83.448 63.9715 82.094 62.6495C80.9651 61.5574 80.124 60.203 79.6456 58.7071C78.9656 56.5261 79.2496 54.6721 80.4898 53.1967Z" fill="white"/>
</g>
<defs>
<clipPath id="clip0_260_2345">
<rect width="186" height="186" fill="white"/>
</clipPath>
</defs>
</svg>
