<svg width="186" height="162" viewBox="0 0 186 162" fill="none" xmlns="http://www.w3.org/2000/svg">
<path fill-rule="evenodd" clip-rule="evenodd" d="M87.3499 0.679558C108.464 2.44586 126.925 12.7699 143.333 27.3295C162.232 44.0997 186.044 61.689 186 88.2169C185.956 114.731 163.324 134.028 143.132 148.886C126.816 160.892 106.824 164.043 87.3499 160.809C70.7654 158.055 59.6482 143.931 46.3449 132.814C29.4401 118.687 5.23301 110.82 0.481487 88.2169C-4.83051 62.948 4.55447 34.7995 22.037 17.1824C39.0808 0.00732635 64.1832 -1.25847 87.3499 0.679558Z" fill="#144F7C"/>
<path d="M51.0158 65.7449C45.7824 71.7121 45.7824 96.0271 70.2658 93.1453" stroke="white" stroke-width="3" stroke-miterlimit="10" stroke-linecap="round" stroke-linejoin="round"/>
<path d="M52.6214 67.4436C49.4908 64.3406 49.4676 59.2864 52.5696 56.1546C55.6716 53.0228 60.724 52.9998 63.8544 56.1028" stroke="white" stroke-width="3" stroke-miterlimit="10" stroke-linecap="round" stroke-linejoin="round"/>
<path d="M93.7969 42.8331C94.8733 38.5579 99.2101 35.9651 103.484 37.0417C107.758 38.1185 110.35 42.4569 109.273 46.7321" stroke="white" stroke-width="3" stroke-miterlimit="10" stroke-linecap="round" stroke-linejoin="round"/>
<path d="M79.7538 80.6098C77.6272 83.7526 73.3566 84.5768 70.215 82.4508C68.8394 81.5198 67.9084 80.1776 67.475 78.699" stroke="white" stroke-width="3" stroke-miterlimit="10" stroke-linecap="round" stroke-linejoin="round"/>
<path d="M69.0238 73.3774C69.4126 77.1516 66.6686 80.5274 62.895 80.9174C61.2426 81.0882 59.6668 80.6582 58.3848 79.804" stroke="white" stroke-width="3" stroke-miterlimit="10" stroke-linecap="round" stroke-linejoin="round"/>
<path d="M89.5543 94.3876C91.8835 97.6118 96.3843 98.3376 99.6071 96.009C101.018 94.9894 101.951 93.5532 102.357 91.99" stroke="white" stroke-width="3" stroke-miterlimit="10" stroke-linecap="round" stroke-linejoin="round"/>
<path d="M85.1907 86.6612C88.0131 87.6206 91.0785 86.1112 92.0375 83.2896C92.4573 82.0542 92.4037 80.772 91.9739 79.6404" stroke="white" stroke-width="3" stroke-miterlimit="10" stroke-linecap="round" stroke-linejoin="round"/>
<path d="M100.563 86.4646C100.277 90.4314 103.261 93.8796 107.227 94.1668C108.964 94.2924 110.601 93.7912 111.917 92.855" stroke="white" stroke-width="3" stroke-miterlimit="10" stroke-linecap="round" stroke-linejoin="round"/>
<path d="M126.912 60.5788C130.908 58.7196 135.654 60.4528 137.513 64.4502C139.371 68.4476 137.639 73.1954 133.643 75.0546" stroke="white" stroke-width="3" stroke-miterlimit="10" stroke-linecap="round" stroke-linejoin="round"/>
<path d="M137.516 73.3669C141.454 79.1325 139.975 87.0001 134.211 90.9397C128.448 94.8793 120.583 93.3991 116.645 87.6337" stroke="white" stroke-width="3" stroke-miterlimit="10" stroke-linecap="round" stroke-linejoin="round"/>
<path d="M109.115 41.3331C112.151 40.3391 128.458 46.1795 130.221 59.2513" stroke="white" stroke-width="3" stroke-miterlimit="10" stroke-linecap="round" stroke-linejoin="round"/>
<path d="M134.211 90.9397C134.211 90.9397 134.054 99.2981 124.254 103.098" stroke="white" stroke-width="3" stroke-miterlimit="10" stroke-linecap="round" stroke-linejoin="round"/>
<path d="M102.593 99.1836C102.593 99.1836 103.317 104.306 110.918 106.298C117.532 108.03 120.093 109.943 121.362 114.226" stroke="white" stroke-width="3" stroke-miterlimit="10" stroke-linecap="round" stroke-linejoin="round"/>
<path d="M57.0563 53.7906C57.0563 53.7906 57.4121 40.7954 72.5917 42.5434" stroke="white" stroke-width="3" stroke-miterlimit="10" stroke-linecap="round" stroke-linejoin="round"/>
<path d="M70.7418 45.1832C70.7418 45.1832 76.547 32.5064 96.0904 38.9484" stroke="white" stroke-width="3" stroke-miterlimit="10" stroke-linecap="round" stroke-linejoin="round"/>
<path d="M124.021 76.4178C124.021 76.4178 120.326 78.0006 117.045 75.457" stroke="white" stroke-width="3" stroke-miterlimit="10" stroke-linecap="round" stroke-linejoin="round"/>
<path d="M70.7418 90.0144C71.1284 96.8024 76.9834 101.925 84.683 101.925C88.7954 101.925 92.4918 100.353 95.0436 97.8516" stroke="white" stroke-width="3" stroke-miterlimit="10" stroke-linecap="round" stroke-linejoin="round"/>
<path d="M108.717 78.6582C108.717 78.6582 117.57 79.6327 117.879 69.7271" stroke="white" stroke-width="3" stroke-miterlimit="10" stroke-linecap="round" stroke-linejoin="round"/>
<path d="M88.2363 75.7162L79.1193 66.5828C76.0545 63.5128 76.0587 58.5394 79.1287 55.4746C82.1987 52.4098 87.1721 52.414 90.2369 55.484L92.1003 57.3506L93.9669 55.4872C97.0369 52.4224 102.01 52.4266 105.075 55.4966C108.14 58.5666 108.136 63.54 105.066 66.6048L92.0677 79.5326" stroke="white" stroke-width="3" stroke-miterlimit="10" stroke-linecap="round" stroke-linejoin="round"/>
<path d="M121.054 98.2981C121.854 100.698 123.287 103.61 126.054 106.498C130.654 111.298 128.654 118.098 128.654 118.098" stroke="white" stroke-width="3" stroke-miterlimit="10" stroke-linecap="round" stroke-linejoin="round"/>
</svg>
