<svg width="186" height="186" viewBox="0 0 186 186" fill="none" xmlns="http://www.w3.org/2000/svg">
<path fill-rule="evenodd" clip-rule="evenodd" d="M104.693 7.46548C130.586 5.00268 159.267 12.1516 175.467 32.7637C190.79 52.2596 186.395 80.1702 180.935 104.471C176.731 123.185 163.202 136.634 149.22 149.584C136.138 161.701 122.117 171.798 104.693 175.088C82.5161 179.276 58.542 182.923 39.7676 170.252C17.8207 155.439 -1.27597 131.154 0.0667967 104.471C1.38163 78.3419 27.0169 62.7341 46.0668 45.0718C63.8052 28.6255 80.7538 9.74249 104.693 7.46548Z" fill="#144F7C"/>
<path d="M90.9398 83.9978C93.8824 83.9978 96.2678 81.6124 96.2678 78.6698C96.2678 75.7272 93.8824 73.3418 90.9398 73.3418C87.9972 73.3418 85.6118 75.7272 85.6118 78.6698C85.6118 81.6124 87.9972 83.9978 90.9398 83.9978Z" stroke="white" stroke-width="3" stroke-miterlimit="10" stroke-linecap="round" stroke-linejoin="round"/>
<path d="M96.1904 76.6358L98.1254 58.2612" stroke="white" stroke-width="3" stroke-miterlimit="10" stroke-linecap="round" stroke-linejoin="round"/>
<path d="M102.653 58.75L100.462 87.1632V106.47L112.031 141.795" stroke="white" stroke-width="3" stroke-miterlimit="10" stroke-linecap="round" stroke-linejoin="round"/>
<path d="M106.247 141.795L93.2796 108.082L80.7388 141.795" stroke="white" stroke-width="3" stroke-miterlimit="10" stroke-linecap="round" stroke-linejoin="round"/>
<path d="M75.2388 141.795L85.8594 106.469V92.2827" stroke="white" stroke-width="3" stroke-miterlimit="10" stroke-linecap="round" stroke-linejoin="round"/>
<path d="M84.6817 85.2183L76.6813 93.3867C75.2047 94.8943 75.1301 97.2819 76.5097 98.8787L85.1383 108.866" stroke="white" stroke-width="3" stroke-miterlimit="10" stroke-linecap="round" stroke-linejoin="round"/>
<path d="M82.0742 101.528L85.7746 105.971" stroke="white" stroke-width="3" stroke-miterlimit="10" stroke-linecap="round" stroke-linejoin="round"/>
<path d="M94.181 56.9075C93.5528 60.2961 90.2966 62.5337 86.9082 61.9057L81.8096 60.9605L84.0844 48.6895L89.183 49.6347C92.5714 50.2627 94.8092 53.5189 94.181 56.9075Z" stroke="white" stroke-width="3" stroke-miterlimit="10" stroke-linecap="round" stroke-linejoin="round"/>
<path d="M94.1812 56.9072L107.975 59.5536" stroke="white" stroke-width="3" stroke-miterlimit="10" stroke-linecap="round" stroke-linejoin="round"/>
<path d="M107.366 62.8376L108.615 56.0972" stroke="white" stroke-width="3" stroke-miterlimit="10" stroke-linecap="round" stroke-linejoin="round"/>
<path d="M83.5378 61.2808L83.1934 63.1388C82.8882 64.7854 83.9756 66.3676 85.622 66.6728C87.2686 66.978 88.8508 65.8906 89.156 64.2442L89.607 61.8118L91.2794 62.1218C92.3126 62.3134 92.9948 63.3062 92.8034 64.3394" stroke="white" stroke-width="3" stroke-miterlimit="10" stroke-linecap="round" stroke-linejoin="round"/>
<path d="M85.9194 48.4351L86.2638 46.5771C86.569 44.9305 88.1512 43.8433 89.7978 44.1485C91.4444 44.4537 92.5316 46.0359 92.2264 47.6825L91.7754 50.1149L93.4478 50.4249C94.481 50.6165 95.4738 49.9341 95.6654 48.9009" stroke="white" stroke-width="3" stroke-miterlimit="10" stroke-linecap="round" stroke-linejoin="round"/>
<path d="M61.9634 62.813L68.695 68.9516" stroke="white" stroke-width="3" stroke-miterlimit="10" stroke-linecap="round" stroke-linejoin="round"/>
<path d="M54.1211 80.0854L63.0739 81.7714" stroke="white" stroke-width="3" stroke-miterlimit="10" stroke-linecap="round" stroke-linejoin="round"/>
<path d="M122.725 62.813L115.993 68.9516" stroke="white" stroke-width="3" stroke-miterlimit="10" stroke-linecap="round" stroke-linejoin="round"/>
<path d="M130.567 80.0854L121.614 81.7714" stroke="white" stroke-width="3" stroke-miterlimit="10" stroke-linecap="round" stroke-linejoin="round"/>
</svg>
