<svg width="186" height="186" viewBox="0 0 186 186" fill="none" xmlns="http://www.w3.org/2000/svg">
<g clip-path="url(#clip0_492_5464)">
<path fill-rule="evenodd" clip-rule="evenodd" d="M180.117 72.27C189.215 95.2961 187.022 123.359 172.092 143.342C157.723 162.574 130.841 163.244 107.504 169.459C82.2243 176.192 54.3718 194.921 32.8128 180.436C11.3048 165.986 20.8636 133.352 16.1074 108.053C11.6044 84.101 -4.92664 60.3061 6.11519 38.4306C17.7382 15.4036 44.5894 1.23223 70.5673 0.159318C93.8654 -0.802909 109.295 20.635 128.642 33.3701C147.333 45.6739 171.946 51.5897 180.117 72.27Z" fill="#144F7C"/>
<path d="M133.968 59.2996C143.591 68.9388 143.577 84.5536 133.938 94.1764L93.1712 134.874L69.3172 110.98" stroke="white" stroke-width="3" stroke-miterlimit="10" stroke-linecap="round" stroke-linejoin="round"/>
<path d="M64.6762 106.101L52.4732 94.1072C42.8504 84.4682 42.8638 68.8532 52.5028 59.2304C62.1418 49.6076 77.7568 49.6208 87.3796 59.26L93.2304 65.1208L99.091 59.27C107.223 51.1518 119.608 49.892 129.06 55.4842" stroke="white" stroke-width="3" stroke-miterlimit="10" stroke-linecap="round" stroke-linejoin="round"/>
<path d="M118.119 82.8401L81.7508 104.126C80.298 104.977 78.4308 104.488 77.5804 103.035L73.2984 95.7193C72.448 94.2665 72.9364 92.3993 74.3894 91.5489L110.757 70.2627C112.21 69.4123 114.077 69.9007 114.928 71.3537L119.21 78.6697C120.06 80.1227 119.572 81.9899 118.119 82.8401Z" stroke="white" stroke-width="3" stroke-miterlimit="10" stroke-linecap="round" stroke-linejoin="round"/>
<path d="M84.1528 95.2971C84.7818 95.2971 85.2916 94.7873 85.2916 94.1583C85.2916 93.5294 84.7818 93.0195 84.1528 93.0195C83.5239 93.0195 83.014 93.5294 83.014 94.1583C83.014 94.7873 83.5239 95.2971 84.1528 95.2971Z" fill="white"/>
<path d="M78.9271 95.513C79.556 95.513 80.0659 95.0031 80.0659 94.3742C80.0659 93.7452 79.556 93.2354 78.9271 93.2354C78.2981 93.2354 77.7883 93.7452 77.7883 94.3742C77.7883 95.0031 78.2981 95.513 78.9271 95.513Z" fill="white"/>
<path d="M81.4052 99.7473C82.0341 99.7473 82.544 99.2375 82.544 98.6085C82.544 97.9796 82.0341 97.4697 81.4052 97.4697C80.7762 97.4697 80.2664 97.9796 80.2664 98.6085C80.2664 99.2375 80.7762 99.7473 81.4052 99.7473Z" fill="white"/>
<path d="M85.252 85.6667L89.9178 93.6383" stroke="white" stroke-width="3" stroke-miterlimit="10" stroke-linecap="round" stroke-linejoin="round"/>
<path d="M108.329 81.1475C108.958 81.1475 109.467 80.6376 109.467 80.0087C109.467 79.3797 108.958 78.8699 108.329 78.8699C107.7 78.8699 107.19 79.3797 107.19 80.0087C107.19 80.6376 107.7 81.1475 108.329 81.1475Z" fill="white"/>
<path d="M111.076 76.6973C111.705 76.6973 112.215 76.1874 112.215 75.5585C112.215 74.9295 111.705 74.4197 111.076 74.4197C110.447 74.4197 109.937 74.9295 109.937 75.5585C109.937 76.1874 110.447 76.6973 111.076 76.6973Z" fill="white"/>
<path d="M113.554 80.9314C114.183 80.9314 114.693 80.4216 114.693 79.7926C114.693 79.1637 114.183 78.6538 113.554 78.6538C112.925 78.6538 112.416 79.1637 112.416 79.7926C112.416 80.4216 112.925 80.9314 113.554 80.9314Z" fill="white"/>
<path d="M100.386 76.8086L105.052 84.7802" stroke="white" stroke-width="3" stroke-miterlimit="10" stroke-linecap="round" stroke-linejoin="round"/>
<path d="M117.125 75.1071L123.876 71.1007L122.876 65.5007L128.676 64.1007L129.076 55.5007" stroke="white" stroke-width="3" stroke-miterlimit="10" stroke-linecap="round" stroke-linejoin="round"/>
<path d="M75.4791 99.4456L69.5279 99.7472L70.6761 103.901L64.6761 106.101" stroke="white" stroke-width="3" stroke-miterlimit="10" stroke-linecap="round" stroke-linejoin="round"/>
</g>
<defs>
<clipPath id="clip0_492_5464">
<rect width="186" height="186" fill="white"/>
</clipPath>
</defs>
</svg>
