<svg width="187" height="186" viewBox="0 0 187 186" fill="none" xmlns="http://www.w3.org/2000/svg">
<path fill-rule="evenodd" clip-rule="evenodd" d="M88.3499 24.6796C109.464 26.4459 127.925 36.7699 144.333 51.3295C163.232 68.0997 187.044 85.689 187 112.217C186.956 138.731 164.324 158.028 144.132 172.886C127.816 184.892 107.824 188.043 88.3499 184.809C71.7654 182.055 60.6482 167.931 47.3449 156.814C30.4401 142.687 6.23301 134.82 1.48149 112.217C-3.83051 86.948 5.55447 58.7995 23.037 41.1824C40.0808 24.0073 65.1832 22.7415 88.3499 24.6796Z" fill="#144F7C"/>
<path d="M52.0158 89.7449C46.7824 95.7121 46.7824 120.027 71.2658 117.145" stroke="white" stroke-width="3" stroke-miterlimit="10" stroke-linecap="round" stroke-linejoin="round"/>
<path d="M53.6214 91.4437C50.4908 88.3407 50.4676 83.2865 53.5696 80.1547C56.6716 77.0229 61.724 76.9999 64.8544 80.1029" stroke="white" stroke-width="3" stroke-miterlimit="10" stroke-linecap="round" stroke-linejoin="round"/>
<path d="M94.7969 66.8331C95.8733 62.5579 100.21 59.9651 104.484 61.0417C108.757 62.1185 111.349 66.4569 110.273 70.7321" stroke="white" stroke-width="3" stroke-miterlimit="10" stroke-linecap="round" stroke-linejoin="round"/>
<path d="M80.7538 104.61C78.6272 107.753 74.3566 108.577 71.215 106.451C69.8394 105.52 68.9084 104.178 68.475 102.699" stroke="white" stroke-width="3" stroke-miterlimit="10" stroke-linecap="round" stroke-linejoin="round"/>
<path d="M70.0238 97.3774C70.4126 101.152 67.6686 104.527 63.895 104.917C62.2426 105.088 60.6668 104.658 59.3848 103.804" stroke="white" stroke-width="3" stroke-miterlimit="10" stroke-linecap="round" stroke-linejoin="round"/>
<path d="M90.5543 118.387C92.8835 121.612 97.3843 122.337 100.607 120.009C102.018 118.989 102.951 117.553 103.357 115.99" stroke="white" stroke-width="3" stroke-miterlimit="10" stroke-linecap="round" stroke-linejoin="round"/>
<path d="M86.1907 110.661C89.0131 111.621 92.0785 110.111 93.0375 107.29C93.4573 106.054 93.4037 104.772 92.9739 103.641" stroke="white" stroke-width="3" stroke-miterlimit="10" stroke-linecap="round" stroke-linejoin="round"/>
<path d="M101.563 110.465C101.277 114.432 104.261 117.88 108.227 118.167C109.964 118.293 111.601 117.791 112.917 116.855" stroke="white" stroke-width="3" stroke-miterlimit="10" stroke-linecap="round" stroke-linejoin="round"/>
<path d="M127.912 84.5789C131.908 82.7197 136.654 84.4529 138.513 88.4503C140.371 92.4477 138.639 97.1955 134.643 99.0547" stroke="white" stroke-width="3" stroke-miterlimit="10" stroke-linecap="round" stroke-linejoin="round"/>
<path d="M138.516 97.3668C142.454 103.132 140.975 111 135.211 114.94C129.448 118.879 121.583 117.399 117.645 111.634" stroke="white" stroke-width="3" stroke-miterlimit="10" stroke-linecap="round" stroke-linejoin="round"/>
<path d="M110.115 65.3331C113.151 64.3391 129.458 70.1795 131.221 83.2513" stroke="white" stroke-width="3" stroke-miterlimit="10" stroke-linecap="round" stroke-linejoin="round"/>
<path d="M135.211 114.94C135.211 114.94 135.054 123.298 125.254 127.098" stroke="white" stroke-width="3" stroke-miterlimit="10" stroke-linecap="round" stroke-linejoin="round"/>
<path d="M103.593 123.184C103.593 123.184 104.317 128.306 111.918 130.298C118.532 132.03 121.093 133.943 122.362 138.227" stroke="white" stroke-width="3" stroke-miterlimit="10" stroke-linecap="round" stroke-linejoin="round"/>
<path d="M58.0563 77.7907C58.0563 77.7907 58.4121 64.7955 73.5917 66.5435" stroke="white" stroke-width="3" stroke-miterlimit="10" stroke-linecap="round" stroke-linejoin="round"/>
<path d="M71.7418 69.183C71.7418 69.183 77.547 56.5062 97.0904 62.9482" stroke="white" stroke-width="3" stroke-miterlimit="10" stroke-linecap="round" stroke-linejoin="round"/>
<path d="M125.021 100.418C125.021 100.418 121.326 102.001 118.045 99.457" stroke="white" stroke-width="3" stroke-miterlimit="10" stroke-linecap="round" stroke-linejoin="round"/>
<path d="M71.7418 114.015C72.1284 120.803 77.9834 125.925 85.683 125.925C89.7954 125.925 93.4918 124.353 96.0436 121.852" stroke="white" stroke-width="3" stroke-miterlimit="10" stroke-linecap="round" stroke-linejoin="round"/>
<path d="M109.717 102.658C109.717 102.658 118.57 103.633 118.879 93.7271" stroke="white" stroke-width="3" stroke-miterlimit="10" stroke-linecap="round" stroke-linejoin="round"/>
<path d="M89.2363 99.7162L80.1193 90.5828C77.0545 87.5128 77.0587 82.5394 80.1287 79.4746C83.1987 76.4098 88.1721 76.414 91.2369 79.484L93.1003 81.3506L94.9669 79.4872C98.0369 76.4224 103.01 76.4266 106.075 79.4966C109.14 82.5666 109.136 87.54 106.066 90.6048L93.0677 103.533" stroke="white" stroke-width="3" stroke-miterlimit="10" stroke-linecap="round" stroke-linejoin="round"/>
<path d="M122.054 122.298C122.854 124.698 124.287 127.61 127.054 130.498C131.654 135.298 129.654 142.098 129.654 142.098" stroke="white" stroke-width="3" stroke-miterlimit="10" stroke-linecap="round" stroke-linejoin="round"/>
</svg>
