<svg width="186" height="187" viewBox="0 0 186 187" fill="none" xmlns="http://www.w3.org/2000/svg">
<g clip-path="url(#clip0_293_6297)">
<path fill-rule="evenodd" clip-rule="evenodd" d="M101.431 0.251727C128.347 0.847819 160.651 0.238567 175.892 22.75C190.585 44.4517 167.22 71.9586 167.799 98.2785C168.407 125.934 199.241 158.395 179.289 177.252C159.137 196.299 124.448 179.495 97.5 173.71C79.913 169.934 42.2692 178.894 27 169.271C6.28222 156.214 6.94268 122.485 1.90234 98.2785C-3.88117 70.5025 3.56648 39.1547 23.6457 19.3784C43.5438 -0.219417 73.7025 -0.362346 101.431 0.251727Z" fill="#C6BFE6"/>
<path fill-rule="evenodd" clip-rule="evenodd" d="M102.383 0.170402C118.702 -0.911124 133.384 8.97117 146.61 21.4652C163.202 37.1384 184.29 52.4465 185.891 79.056C187.534 106.369 170.336 128.966 154.131 146.439C139.56 162.151 121.256 167.395 102.383 169.098C81.5591 170.977 60.1963 171.749 42.9292 156.475C22.0075 137.969 -4.28176 111.374 0.590018 79.056C5.50436 46.4556 40.5159 44.0341 62.4404 27.0436C75.8283 16.6685 86.8242 1.2016 102.383 0.170402Z" fill="#144F7C"/>
<path d="M141.501 87.3083C141.274 87.0889 140.97 86.9684 140.655 86.9733C140.34 86.9782 140.039 87.108 139.82 87.3343L138.173 89.0327C136.06 91.2131 134.576 93.9247 133.878 96.8801L132.851 101.234C132.579 102.399 132.161 103.525 131.607 104.585C127.966 111.499 122.567 116.967 119.673 119.611C118.491 120.693 116.948 121.294 115.347 121.299C107.418 121.328 100.443 121.065 96.8167 120.895L98.7767 118.92C98.9988 118.696 99.1229 118.394 99.1218 118.078C99.1206 117.763 98.9942 117.461 98.7704 117.239C98.5466 117.017 98.2438 116.893 97.9285 116.894C97.6131 116.895 97.3112 117.021 97.0891 117.245L93.2737 121.089L90.4409 123.725C90.0532 124.072 89.6036 124.343 89.1155 124.525C88.9692 124.579 88.835 124.662 88.7206 124.768C88.6062 124.874 88.5138 125.002 88.4488 125.144C88.3838 125.286 88.3474 125.439 88.3416 125.595C88.3359 125.751 88.3609 125.907 88.4153 126.053C88.4697 126.2 88.5524 126.334 88.6586 126.448C88.7649 126.563 88.8926 126.655 89.0346 126.72C89.1765 126.785 89.3299 126.821 89.4859 126.827C89.6419 126.833 89.7976 126.808 89.9439 126.753C90.7173 126.466 91.4293 126.034 92.0425 125.482L94.5383 123.161C96.6769 123.279 105.253 123.714 115.355 123.676C117.548 123.67 119.659 122.847 121.277 121.367C124.285 118.618 129.901 112.927 133.711 105.693C134.359 104.455 134.847 103.141 135.165 101.78L136.192 97.4261C136.791 94.8884 138.066 92.56 139.881 90.6877L141.527 88.9893C141.747 88.7629 141.867 88.4586 141.862 88.1434C141.857 87.8281 141.727 87.5277 141.501 87.3083Z" fill="white"/>
<path d="M98.3295 81.5906C96.7323 83.089 94.2895 85.354 91.7213 87.6346C91.6029 87.7378 91.5061 87.8634 91.4365 88.0043C91.3669 88.1451 91.3259 88.2983 91.3159 88.455C91.3059 88.6118 91.327 88.7689 91.3781 88.9175C91.4291 89.066 91.5091 89.2029 91.6134 89.3204C91.7177 89.4378 91.8443 89.5334 91.9857 89.6017C92.1272 89.6699 92.2808 89.7094 92.4376 89.718C92.5945 89.7265 92.7514 89.7039 92.8995 89.6514C93.0475 89.5989 93.1837 89.5177 93.3001 89.4122C95.8881 87.114 98.3481 84.8322 99.9563 83.3246C101.49 81.8806 103.415 80.919 105.49 80.5594C109.793 79.8079 113.98 78.4995 117.945 76.6672C119.771 75.8227 121.462 74.7105 122.961 73.3672C133.058 64.2806 141.332 51.2328 141.678 50.6818C141.846 50.4151 141.902 50.0925 141.832 49.785C141.762 49.4776 141.573 49.2104 141.306 49.0422C141.04 48.8741 140.717 48.8188 140.41 48.8886C140.102 48.9583 139.835 49.1473 139.667 49.414C139.583 49.5462 131.217 62.7386 121.37 71.6006C120.046 72.7856 118.554 73.7665 116.941 74.5112C113.166 76.2558 109.18 77.5014 105.084 78.2166C102.55 78.6553 100.202 79.8286 98.3295 81.5906Z" fill="white"/>
<path d="M96.9747 95.1473L98.2347 92.7969C98.3816 92.5192 98.4126 92.1948 98.321 91.8943C98.2293 91.5939 98.0226 91.3419 97.7458 91.1935C97.469 91.045 97.1447 91.0121 96.8437 91.102C96.5428 91.1918 96.2896 91.3972 96.1395 91.6731L95.3345 93.1731C82.7025 89.2575 72.0981 77.5377 68.0635 72.5917C66.4975 70.6717 65.0325 68.9353 63.5845 67.2821L46.6181 47.9095C46.4096 47.6753 46.1169 47.5329 45.8039 47.5135C45.4909 47.4941 45.1829 47.5992 44.947 47.8058C44.7111 48.0125 44.5664 48.304 44.5444 48.6168C44.5224 48.9297 44.625 49.2385 44.8297 49.4761L61.7969 68.8479C63.2265 70.4801 64.6739 72.1961 66.2221 74.0939C70.3509 79.1549 81.1443 91.0793 94.2083 95.3139L87.9791 107.294C76.6235 109.844 71.9941 102.619 71.3883 101.566C70.712 100.07 69.8065 98.6888 68.7045 97.4721C68.5965 97.356 68.4664 97.2627 68.3218 97.1976C68.1772 97.1326 68.021 97.0971 67.8625 97.0934C67.7039 97.0896 67.5463 97.1176 67.3987 97.1757C67.2512 97.2337 67.1167 97.3208 67.0033 97.4316C66.8899 97.5424 66.7998 97.6748 66.7383 97.821C66.6769 97.9671 66.6453 98.1241 66.6454 98.2827C66.6455 98.4413 66.6773 98.5982 66.739 98.7443C66.8007 98.8904 66.891 99.0226 67.0045 99.1333C67.0523 99.1825 71.7779 104.125 70.4109 111.756C70.3794 111.912 70.3793 112.072 70.4105 112.227C70.4416 112.382 70.5035 112.53 70.5925 112.661C70.6815 112.792 70.7958 112.904 70.9286 112.99C71.0615 113.076 71.2102 113.135 71.3661 113.163C71.5221 113.191 71.682 113.188 71.8365 113.153C71.9911 113.118 72.1372 113.053 72.2662 112.961C72.3952 112.869 72.5045 112.753 72.5878 112.618C72.671 112.483 72.7265 112.333 72.7509 112.176C73.0785 110.379 73.1268 108.542 72.8941 106.729C73.1795 106.954 73.4779 107.178 73.7997 107.397C75.8749 108.807 79.0397 110.214 83.4039 110.214C84.4691 110.21 85.5326 110.13 86.5861 109.974L81.5223 119.712C80.8659 119.044 79.9809 118.16 78.9917 117.221C78.8786 117.113 78.7453 117.029 78.5996 116.973C78.4539 116.917 78.2986 116.89 78.1426 116.894C77.9865 116.898 77.8328 116.933 77.6901 116.996C77.5475 117.06 77.4188 117.151 77.3112 117.264C77.2037 117.377 77.1196 117.51 77.0635 117.656C77.0075 117.802 76.9807 117.957 76.9847 118.113C76.9887 118.269 77.0234 118.423 77.0869 118.565C77.1503 118.708 77.2412 118.837 77.3543 118.944C79.2343 120.731 80.7759 122.358 80.9323 122.523C81.2723 122.914 86.8349 129.498 82.7097 135.702C82.496 136.033 82.1968 136.299 81.8439 136.473C81.4909 136.648 81.0975 136.723 80.7051 136.691C80.2969 136.668 79.9023 136.536 79.5619 136.309C79.2216 136.083 78.9476 135.77 78.7683 135.402C77.2619 132.362 74.4339 127.759 69.5153 123.093C67.9401 121.621 66.2298 120.301 64.4071 119.149C61.3099 117.154 54.1565 110.769 54.6259 94.5971C54.6309 94.4273 54.5994 94.2585 54.5336 94.1019C54.4678 93.9454 54.3693 93.8047 54.2445 93.6895C54.2157 93.6629 51.3153 90.9841 46.5217 86.6337C46.4069 86.5245 46.2715 86.4393 46.1233 86.3833C45.9751 86.3272 45.8172 86.3013 45.6588 86.3071C45.5005 86.3129 45.3449 86.3503 45.2013 86.4171C45.0576 86.4839 44.9287 86.5788 44.8222 86.6961C44.7157 86.8134 44.6338 86.9508 44.5812 87.1003C44.5285 87.2497 44.5063 87.4082 44.5158 87.5663C44.5253 87.7245 44.5663 87.8792 44.6364 88.0212C44.7066 88.1633 44.8044 88.2899 44.9241 88.3937C48.6951 91.8161 51.2915 94.2015 52.2361 95.0715C51.9109 112.058 59.7195 118.958 63.1199 121.147C64.8176 122.219 66.4107 123.448 67.8781 124.818C72.5435 129.244 75.2163 133.591 76.6381 136.458C77.0007 137.202 77.5547 137.835 78.243 138.293C78.9314 138.751 79.7293 139.017 80.5547 139.065C80.657 139.072 80.7587 139.075 80.8597 139.075C81.6188 139.078 82.3667 138.892 83.0355 138.533C83.7044 138.174 84.273 137.654 84.6899 137.019C89.0205 130.506 84.7719 123.699 83.2221 121.597L96.9747 95.1473Z" fill="white"/>
<path d="M80.4306 64.4386C81.9721 65.9435 83.7488 67.187 85.6906 68.12C90.108 70.2236 92.1754 73.3888 92.1938 73.4176C92.301 73.5863 92.449 73.7252 92.6241 73.8215C92.7992 73.9179 92.9957 73.9685 93.1956 73.9688H93.1992C93.3986 73.9685 93.5948 73.9182 93.7697 73.8224C93.9446 73.7266 94.0927 73.5885 94.2004 73.4206C94.2204 73.3888 96.2884 70.2236 100.706 68.1206C102.648 67.1875 104.424 65.9441 105.966 64.4392C107.376 63.0717 108.426 61.3765 109.022 59.5046C110.189 55.762 108.962 53.2258 107.728 51.757C106.04 49.749 103.363 48.6752 100.573 48.8856C96.7888 49.1696 94.4338 51.3358 93.1984 52.9234C91.963 51.3358 89.608 49.1696 85.8236 48.885C83.0284 48.6742 80.3558 49.7486 78.6686 51.7564C77.4342 53.225 76.2086 55.761 77.3746 59.5042C77.9707 61.3759 79.0205 63.0711 80.4306 64.4386ZM80.4888 53.286C81.584 51.9828 83.2916 51.2366 85.1312 51.2366C85.3016 51.2366 85.473 51.2433 85.6454 51.2566C90.1608 51.5966 92.0442 55.4596 92.1202 55.6196C92.2156 55.8251 92.3678 55.9991 92.5589 56.121C92.7499 56.2429 92.9718 56.3077 93.1984 56.3077C93.425 56.3077 93.6469 56.2429 93.8379 56.121C94.0289 55.9991 94.1811 55.8251 94.2766 55.6196C94.2952 55.5796 96.1942 51.5996 100.752 51.2566C102.785 51.1052 104.712 51.8628 105.908 53.2868C107.148 54.7622 107.432 56.6162 106.752 58.7968C106.274 60.2929 105.433 61.6474 104.304 62.7394C102.95 64.0616 101.389 65.1541 99.6836 65.974C97.2131 67.1391 95.0063 68.7961 93.1984 70.8436C91.3904 68.7959 89.1836 67.1387 86.713 65.9734C85.0075 65.1534 83.447 64.0609 82.093 62.7388C80.9641 61.6468 80.123 60.2924 79.6446 58.7964C78.9646 56.6154 79.2486 54.7614 80.4888 53.286Z" fill="white"/>
</g>
<defs>
<clipPath id="clip0_293_6297">
<rect width="186" height="186" fill="white" transform="translate(0 0.0893555)"/>
</clipPath>
</defs>
</svg>
