<svg width="186" height="186" viewBox="0 0 186 186" fill="none" xmlns="http://www.w3.org/2000/svg">
<g clip-path="url(#clip0_260_2263)">
<path fill-rule="evenodd" clip-rule="evenodd" d="M95.8755 -0.998356C119.6 -0.791586 136.214 19.4045 152.456 36.0026C167.967 51.8535 182.736 68.6935 185.224 90.3078C188.003 114.462 183.672 140.234 166.506 158.097C148.804 176.517 121.888 181.124 95.8755 183.282C66.5386 185.716 31.779 191.757 11.8795 170.925C-7.82268 150.3 1.72345 117.816 7.06213 90.3078C11.2197 68.885 22.7638 50.936 38.2576 35.0073C54.516 18.2925 72.0516 -1.206 95.8755 -0.998356Z" fill="#A1C9E8"/>
<path fill-rule="evenodd" clip-rule="evenodd" d="M87.3499 24.6796C108.464 26.4459 126.925 36.7699 143.333 51.3295C162.232 68.0997 186.044 85.689 186 112.217C185.956 138.731 163.324 158.028 143.132 172.886C126.816 184.892 106.824 188.043 87.3499 184.809C70.7654 182.055 59.6482 167.931 46.3449 156.814C29.4401 142.687 5.23301 134.82 0.481487 112.217C-4.83051 86.948 4.55447 58.7995 22.037 41.1824C39.0808 24.0073 64.1832 22.7415 87.3499 24.6796Z" fill="#144F7C"/>
<path d="M51.0165 89.7449C45.7831 95.7121 45.7831 120.027 70.2666 117.145" stroke="white" stroke-width="3" stroke-miterlimit="10" stroke-linecap="round" stroke-linejoin="round"/>
<path d="M52.623 91.4436C49.4924 88.3406 49.4692 83.2864 52.5712 80.1546C55.6732 77.0228 60.7256 76.9998 63.856 80.1028" stroke="white" stroke-width="3" stroke-miterlimit="10" stroke-linecap="round" stroke-linejoin="round"/>
<path d="M93.7969 66.8331C94.8733 62.5579 99.2101 59.9651 103.484 61.0417C107.757 62.1185 110.349 66.4569 109.273 70.7321" stroke="white" stroke-width="3" stroke-miterlimit="10" stroke-linecap="round" stroke-linejoin="round"/>
<path d="M79.7554 104.61C77.6288 107.753 73.3582 108.577 70.2166 106.451C68.841 105.52 67.91 104.178 67.4766 102.699" stroke="white" stroke-width="3" stroke-miterlimit="10" stroke-linecap="round" stroke-linejoin="round"/>
<path d="M69.0238 97.3774C69.4126 101.152 66.6686 104.527 62.895 104.917C61.2426 105.088 59.6668 104.658 58.3848 103.804" stroke="white" stroke-width="3" stroke-miterlimit="10" stroke-linecap="round" stroke-linejoin="round"/>
<path d="M89.5547 118.388C91.8839 121.612 96.3847 122.338 99.6075 120.009C101.019 118.989 101.951 117.553 102.357 115.99" stroke="white" stroke-width="3" stroke-miterlimit="10" stroke-linecap="round" stroke-linejoin="round"/>
<path d="M85.1914 110.661C88.0138 111.621 91.0792 110.111 92.0382 107.29C92.458 106.054 92.4044 104.772 91.9746 103.64" stroke="white" stroke-width="3" stroke-miterlimit="10" stroke-linecap="round" stroke-linejoin="round"/>
<path d="M100.564 110.465C100.278 114.431 103.262 117.88 107.228 118.167C108.964 118.292 110.602 117.791 111.917 116.855" stroke="white" stroke-width="3" stroke-miterlimit="10" stroke-linecap="round" stroke-linejoin="round"/>
<path d="M126.912 84.5788C130.908 82.7196 135.654 84.4528 137.513 88.4502C139.371 92.4476 137.639 97.1954 133.643 99.0546" stroke="white" stroke-width="3" stroke-miterlimit="10" stroke-linecap="round" stroke-linejoin="round"/>
<path d="M137.518 97.3669C141.456 103.133 139.976 111 134.213 114.94C128.449 118.879 120.585 117.399 116.646 111.634" stroke="white" stroke-width="3" stroke-miterlimit="10" stroke-linecap="round" stroke-linejoin="round"/>
<path d="M109.115 65.3331C112.152 64.3391 128.459 70.1795 130.221 83.2513" stroke="white" stroke-width="3" stroke-miterlimit="10" stroke-linecap="round" stroke-linejoin="round"/>
<path d="M134.213 114.94C134.213 114.94 134.056 123.298 124.256 127.098" stroke="white" stroke-width="3" stroke-miterlimit="10" stroke-linecap="round" stroke-linejoin="round"/>
<path d="M102.594 123.184C102.594 123.184 103.318 128.306 110.919 130.298C117.532 132.03 120.093 133.943 121.362 138.226" stroke="white" stroke-width="3" stroke-miterlimit="10" stroke-linecap="round" stroke-linejoin="round"/>
<path d="M57.0566 77.7906C57.0566 77.7906 57.4124 64.7954 72.592 66.5434" stroke="white" stroke-width="3" stroke-miterlimit="10" stroke-linecap="round" stroke-linejoin="round"/>
<path d="M70.7422 69.1832C70.7422 69.1832 76.5474 56.5064 96.0908 62.9484" stroke="white" stroke-width="3" stroke-miterlimit="10" stroke-linecap="round" stroke-linejoin="round"/>
<path d="M124.021 100.418C124.021 100.418 120.326 102.001 117.045 99.457" stroke="white" stroke-width="3" stroke-miterlimit="10" stroke-linecap="round" stroke-linejoin="round"/>
<path d="M70.7422 114.014C71.1288 120.802 76.9838 125.925 84.6834 125.925C88.7958 125.925 92.4922 124.353 95.044 121.852" stroke="white" stroke-width="3" stroke-miterlimit="10" stroke-linecap="round" stroke-linejoin="round"/>
<path d="M108.717 102.658C108.717 102.658 117.57 103.633 117.879 93.7271" stroke="white" stroke-width="3" stroke-miterlimit="10" stroke-linecap="round" stroke-linejoin="round"/>
<path d="M88.2371 99.7162L79.1201 90.5828C76.0553 87.5128 76.0595 82.5394 79.1295 79.4746C82.1995 76.4098 87.1729 76.414 90.2377 79.484L92.1011 81.3506L93.9677 79.4872C97.0377 76.4224 102.011 76.4266 105.076 79.4966C108.141 82.5666 108.136 87.54 105.066 90.6048L92.0685 103.533" stroke="white" stroke-width="3" stroke-miterlimit="10" stroke-linecap="round" stroke-linejoin="round"/>
<path d="M121.055 122.298C121.855 124.698 123.287 127.61 126.055 130.498C130.655 135.298 128.655 142.098 128.655 142.098" stroke="white" stroke-width="3" stroke-miterlimit="10" stroke-linecap="round" stroke-linejoin="round"/>
</g>
<defs>
<clipPath id="clip0_260_2263">
<rect width="186" height="186" fill="white"/>
</clipPath>
</defs>
</svg>
