<svg width="194" height="180" viewBox="0 0 194 180" fill="none" xmlns="http://www.w3.org/2000/svg">
<g filter="url(#filter0_d_492_5407)">
<path fill-rule="evenodd" clip-rule="evenodd" d="M108.693 0.465478C134.586 -1.99732 163.267 5.15159 179.467 25.7637C194.79 45.2596 190.395 73.1702 184.935 97.4706C180.731 116.185 167.202 129.634 153.22 142.584C140.138 154.701 126.117 164.798 108.693 168.088C86.5161 172.276 62.542 175.923 43.7676 163.252C21.8207 148.439 2.72403 124.154 4.0668 97.4706C5.38163 71.3419 31.0169 55.7341 50.0668 38.0718C67.8052 21.6255 84.7538 2.74249 108.693 0.465478Z" fill="#144F7C"/>
</g>
<path d="M94.9397 76.9978C97.8823 76.9978 100.268 74.6124 100.268 71.6698C100.268 68.7272 97.8823 66.3418 94.9397 66.3418C91.9971 66.3418 89.6117 68.7272 89.6117 71.6698C89.6117 74.6124 91.9971 76.9978 94.9397 76.9978Z" stroke="white" stroke-width="3" stroke-miterlimit="10" stroke-linecap="round" stroke-linejoin="round"/>
<path d="M100.191 69.6358L102.126 51.2612" stroke="white" stroke-width="3" stroke-miterlimit="10" stroke-linecap="round" stroke-linejoin="round"/>
<path d="M106.654 51.75L104.463 80.1632V99.4696L116.031 134.795" stroke="white" stroke-width="3" stroke-miterlimit="10" stroke-linecap="round" stroke-linejoin="round"/>
<path d="M110.247 134.795L97.2794 101.082L84.7386 134.795" stroke="white" stroke-width="3" stroke-miterlimit="10" stroke-linecap="round" stroke-linejoin="round"/>
<path d="M79.2386 134.795L89.8592 99.4696V85.283" stroke="white" stroke-width="3" stroke-miterlimit="10" stroke-linecap="round" stroke-linejoin="round"/>
<path d="M88.682 78.2183L80.6816 86.3867C79.205 87.8943 79.1304 90.2819 80.51 91.8787L89.1386 101.866" stroke="white" stroke-width="3" stroke-miterlimit="10" stroke-linecap="round" stroke-linejoin="round"/>
<path d="M86.0742 94.5278L89.7746 98.9708" stroke="white" stroke-width="3" stroke-miterlimit="10" stroke-linecap="round" stroke-linejoin="round"/>
<path d="M98.1812 49.9072C97.553 53.2958 94.2968 55.5334 90.9084 54.9054L85.8098 53.9602L88.0846 41.6892L93.1832 42.6344C96.5716 43.2624 98.8094 46.5186 98.1812 49.9072Z" stroke="white" stroke-width="3" stroke-miterlimit="10" stroke-linecap="round" stroke-linejoin="round"/>
<path d="M98.1813 49.9072L111.975 52.5536" stroke="white" stroke-width="3" stroke-miterlimit="10" stroke-linecap="round" stroke-linejoin="round"/>
<path d="M111.366 55.8376L112.616 49.0972" stroke="white" stroke-width="3" stroke-miterlimit="10" stroke-linecap="round" stroke-linejoin="round"/>
<path d="M87.5379 54.2808L87.1935 56.1388C86.8883 57.7854 87.9757 59.3676 89.6221 59.6728C91.2687 59.978 92.8509 58.8906 93.1561 57.2442L93.6071 54.8118L95.2795 55.1218C96.3127 55.3134 96.9949 56.3062 96.8035 57.3394" stroke="white" stroke-width="3" stroke-miterlimit="10" stroke-linecap="round" stroke-linejoin="round"/>
<path d="M89.9196 41.4351L90.264 39.5771C90.5692 37.9305 92.1514 36.8433 93.798 37.1485C95.4446 37.4537 96.5318 39.0359 96.2266 40.6825L95.7756 43.1149L97.448 43.4249C98.4812 43.6165 99.474 42.9341 99.6656 41.9009" stroke="white" stroke-width="3" stroke-miterlimit="10" stroke-linecap="round" stroke-linejoin="round"/>
<path d="M65.9633 55.813L72.6949 61.9516" stroke="white" stroke-width="3" stroke-miterlimit="10" stroke-linecap="round" stroke-linejoin="round"/>
<path d="M58.1211 73.0854L67.0739 74.7714" stroke="white" stroke-width="3" stroke-miterlimit="10" stroke-linecap="round" stroke-linejoin="round"/>
<path d="M126.725 55.813L119.993 61.9516" stroke="white" stroke-width="3" stroke-miterlimit="10" stroke-linecap="round" stroke-linejoin="round"/>
<path d="M134.567 73.0854L125.614 74.7714" stroke="white" stroke-width="3" stroke-miterlimit="10" stroke-linecap="round" stroke-linejoin="round"/>
<defs>
<filter id="filter0_d_492_5407" x="0" y="0" width="194" height="180" filterUnits="userSpaceOnUse" color-interpolation-filters="sRGB">
<feFlood flood-opacity="0" result="BackgroundImageFix"/>
<feColorMatrix in="SourceAlpha" type="matrix" values="0 0 0 0 0 0 0 0 0 0 0 0 0 0 0 0 0 0 127 0" result="hardAlpha"/>
<feOffset dy="4"/>
<feGaussianBlur stdDeviation="2"/>
<feComposite in2="hardAlpha" operator="out"/>
<feColorMatrix type="matrix" values="0 0 0 0 0 0 0 0 0 0 0 0 0 0 0 0 0 0 0.25 0"/>
<feBlend mode="normal" in2="BackgroundImageFix" result="effect1_dropShadow_492_5407"/>
<feBlend mode="normal" in="SourceGraphic" in2="effect1_dropShadow_492_5407" result="shape"/>
</filter>
</defs>
</svg>
