<svg width="186" height="187" viewBox="0 0 186 187" fill="none" xmlns="http://www.w3.org/2000/svg">
<g clip-path="url(#clip0_293_6268)">
<path fill-rule="evenodd" clip-rule="evenodd" d="M95.8755 -0.909C119.6 -0.702231 136.214 19.4939 152.456 36.092C167.967 51.9429 182.736 68.7828 185.224 90.3971C188.003 114.552 183.672 140.323 166.506 158.186C148.804 176.607 121.888 181.213 95.8755 183.371C66.5386 185.805 31.779 191.846 11.8795 171.015C-7.82268 150.39 1.72345 117.906 7.06213 90.3971C11.2197 68.9744 22.7638 51.0253 38.2576 35.0966C54.516 18.3819 72.0516 -1.11664 95.8755 -0.909Z" fill="#C6BFE6"/>
<path fill-rule="evenodd" clip-rule="evenodd" d="M87.3499 24.7689C108.464 26.5352 126.925 36.8592 143.333 51.4189C162.232 68.189 186.044 85.7783 186 112.306C185.956 138.82 163.324 158.118 143.132 172.975C126.816 184.982 106.824 188.132 87.3499 184.898C70.7654 182.144 59.6482 168.02 46.3449 156.903C29.4401 142.777 5.23301 134.909 0.481487 112.306C-4.83051 87.0373 4.55447 58.8889 22.037 41.2718C39.0808 24.0967 64.1832 22.8309 87.3499 24.7689Z" fill="#144F7C"/>
<path d="M51.0156 89.8342C45.7822 95.8014 45.7822 120.116 70.2656 117.235" stroke="white" stroke-width="3" stroke-miterlimit="10" stroke-linecap="round" stroke-linejoin="round"/>
<path d="M52.621 91.5329C49.4904 88.4299 49.4672 83.3757 52.5692 80.2439C55.6712 77.1121 60.7236 77.0891 63.854 80.1921" stroke="white" stroke-width="3" stroke-miterlimit="10" stroke-linecap="round" stroke-linejoin="round"/>
<path d="M93.7969 66.9224C94.8733 62.6472 99.2101 60.0544 103.484 61.131C107.757 62.2078 110.349 66.5462 109.273 70.8214" stroke="white" stroke-width="3" stroke-miterlimit="10" stroke-linecap="round" stroke-linejoin="round"/>
<path d="M79.7534 104.699C77.6268 107.842 73.3562 108.666 70.2146 106.54C68.839 105.609 67.908 104.267 67.4746 102.788" stroke="white" stroke-width="3" stroke-miterlimit="10" stroke-linecap="round" stroke-linejoin="round"/>
<path d="M69.0238 97.4668C69.4126 101.241 66.6686 104.617 62.895 105.007C61.2426 105.178 59.6668 104.748 58.3848 103.893" stroke="white" stroke-width="3" stroke-miterlimit="10" stroke-linecap="round" stroke-linejoin="round"/>
<path d="M89.5537 118.477C91.8829 121.701 96.3837 122.427 99.6065 120.098C101.018 119.079 101.95 117.643 102.356 116.079" stroke="white" stroke-width="3" stroke-miterlimit="10" stroke-linecap="round" stroke-linejoin="round"/>
<path d="M85.1904 110.751C88.0128 111.71 91.0782 110.201 92.0372 107.379C92.457 106.144 92.4034 104.861 91.9736 103.73" stroke="white" stroke-width="3" stroke-miterlimit="10" stroke-linecap="round" stroke-linejoin="round"/>
<path d="M100.563 110.554C100.277 114.521 103.261 117.969 107.227 118.256C108.963 118.382 110.601 117.881 111.916 116.944" stroke="white" stroke-width="3" stroke-miterlimit="10" stroke-linecap="round" stroke-linejoin="round"/>
<path d="M126.912 84.6681C130.908 82.8089 135.654 84.5421 137.513 88.5395C139.371 92.5369 137.639 97.2847 133.643 99.1439" stroke="white" stroke-width="3" stroke-miterlimit="10" stroke-linecap="round" stroke-linejoin="round"/>
<path d="M137.516 97.4563C141.454 103.222 139.974 111.089 134.211 115.029C128.448 118.969 120.583 117.488 116.645 111.723" stroke="white" stroke-width="3" stroke-miterlimit="10" stroke-linecap="round" stroke-linejoin="round"/>
<path d="M109.114 65.4225C112.151 64.4285 128.458 70.2689 130.22 83.3407" stroke="white" stroke-width="3" stroke-miterlimit="10" stroke-linecap="round" stroke-linejoin="round"/>
<path d="M134.211 115.029C134.211 115.029 134.054 123.387 124.254 127.187" stroke="white" stroke-width="3" stroke-miterlimit="10" stroke-linecap="round" stroke-linejoin="round"/>
<path d="M102.593 123.273C102.593 123.273 103.317 128.396 110.918 130.387C117.531 132.12 120.092 134.032 121.361 138.316" stroke="white" stroke-width="3" stroke-miterlimit="10" stroke-linecap="round" stroke-linejoin="round"/>
<path d="M57.0557 77.8799C57.0557 77.8799 57.4115 64.8847 72.5911 66.6327" stroke="white" stroke-width="3" stroke-miterlimit="10" stroke-linecap="round" stroke-linejoin="round"/>
<path d="M70.7412 69.2725C70.7412 69.2725 76.5464 56.5957 96.0898 63.0377" stroke="white" stroke-width="3" stroke-miterlimit="10" stroke-linecap="round" stroke-linejoin="round"/>
<path d="M124.02 100.507C124.02 100.507 120.325 102.09 117.044 99.5464" stroke="white" stroke-width="3" stroke-miterlimit="10" stroke-linecap="round" stroke-linejoin="round"/>
<path d="M70.7412 114.104C71.1278 120.892 76.9828 126.014 84.6824 126.014C88.7948 126.014 92.4912 124.442 95.043 121.941" stroke="white" stroke-width="3" stroke-miterlimit="10" stroke-linecap="round" stroke-linejoin="round"/>
<path d="M108.717 102.748C108.717 102.748 117.57 103.722 117.879 93.8164" stroke="white" stroke-width="3" stroke-miterlimit="10" stroke-linecap="round" stroke-linejoin="round"/>
<path d="M88.2361 99.8055L79.1191 90.6721C76.0543 87.6021 76.0585 82.6287 79.1285 79.5639C82.1985 76.4991 87.1719 76.5033 90.2367 79.5733L92.1001 81.4399L93.9667 79.5765C97.0367 76.5117 102.01 76.5159 105.075 79.5859C108.14 82.6559 108.135 87.6293 105.065 90.6941L92.0675 103.622" stroke="white" stroke-width="3" stroke-miterlimit="10" stroke-linecap="round" stroke-linejoin="round"/>
<path d="M121.054 122.387C121.854 124.787 123.286 127.699 126.054 130.587C130.654 135.387 128.654 142.187 128.654 142.187" stroke="white" stroke-width="3" stroke-miterlimit="10" stroke-linecap="round" stroke-linejoin="round"/>
</g>
<defs>
<clipPath id="clip0_293_6268">
<rect width="186" height="186" fill="white" transform="translate(0 0.0893555)"/>
</clipPath>
</defs>
</svg>
