<svg viewBox="0 0 89 48" fill="none" xmlns="http://www.w3.org/2000/svg">
<g id="GF">
<path id="Vector" d="M46.0195 0.884766H84.1902L88.2202 11.5005H85.7956C84.4851 9.9933 83.0216 8.63903 81.4052 7.43767C79.7888 6.21446 78.1943 5.23152 76.6216 4.48886C75.0489 3.7462 73.5636 3.25473 72.1656 3.01446C70.8987 2.79603 69.5991 2.68681 68.2666 2.68681C66.0605 2.68681 64.4878 2.90524 63.5485 3.3421C62.6311 3.75712 62.0523 4.5107 61.812 5.60285C61.5717 6.67316 61.4516 8.49705 61.4516 11.0745V22.3455H67.4147C70.4291 22.3455 72.7008 21.6793 74.2298 20.3469C75.7806 18.9926 76.5888 16.9285 76.6543 14.1544H79.0134V31.6834H76.6543C76.4578 29.4773 76.0646 27.8609 75.4748 26.8343C74.8851 25.7858 73.9458 25.0868 72.6571 24.7373C71.3902 24.366 69.5554 24.1803 67.1526 24.1803H61.4516V40.2022C61.4516 42.1025 61.9758 43.4349 63.0243 44.1994C64.0946 44.9421 65.9622 45.3134 68.627 45.3134H69.4789V47.1155H46.2161V45.3134C48.3567 45.2479 49.9076 45.0295 50.8687 44.6581C51.8298 44.2868 52.4632 43.6643 52.769 42.7906C53.0967 41.895 53.2605 40.5407 53.2605 38.7278V10.0916V8.5189C53.2605 6.42197 52.8673 4.9148 52.081 3.99739C51.3165 3.07999 49.5799 2.62128 46.8714 2.62128C46.7185 2.62128 46.5765 2.63221 46.4455 2.65405C46.3144 2.65405 46.1724 2.66497 46.0195 2.68681V0.884766ZM84.1902 8.12572L80.9793 2.68681H74.8523C76.2066 3.12367 77.4079 3.61514 78.4564 4.16122C79.5049 4.68545 80.4004 5.2206 81.1431 5.76668C81.9076 6.31275 82.9233 7.0991 84.1902 8.12572ZM76.3922 26.4411V19.5278C75.9335 20.4233 75.3656 21.1114 74.6885 21.5919C74.0332 22.0725 73.0393 22.553 71.7069 23.0336C73.0175 23.3612 74.0332 23.7872 74.754 24.3114C75.4967 24.8138 76.0427 25.5237 76.3922 26.4411ZM56.4059 41.0868V10.2226C56.4059 7.97282 56.3294 6.34552 56.1765 5.34074C56.0455 4.33596 55.6523 3.60422 54.997 3.14552C54.3417 2.68681 53.2496 2.53391 51.7206 2.68681C52.8782 3.10183 53.5991 3.69159 53.883 4.4561C54.167 5.2206 54.309 6.695 54.309 8.8793V39.5469C54.309 40.9011 54.2543 41.9059 54.1451 42.5612C54.0578 43.2165 53.8612 43.7407 53.5554 44.1339C53.2496 44.5052 52.7253 44.8984 51.9827 45.3134C53.5991 45.3353 54.7349 45.0295 55.3902 44.396C56.0673 43.7407 56.4059 42.6377 56.4059 41.0868Z" fill="white"/>
<path id="Vector_2" d="M43.2441 0.262116L43.8011 14.7113H42.0318C41.027 12.658 39.8912 10.8232 38.6243 9.20683C37.3574 7.59044 36.0468 6.26894 34.6925 5.24232C33.3382 4.19386 31.9185 3.41843 30.4331 2.91604C28.9478 2.41365 27.4079 2.16246 25.8133 2.16246C22.799 2.16246 20.1123 3.09079 17.7533 4.94744C15.3942 6.8041 13.5594 9.38157 12.2488 12.6799C10.9601 15.9782 10.3157 19.757 10.3157 24.0164C10.3157 28.2539 11.0256 32.0328 12.4454 35.3529C13.8871 38.673 15.8202 41.2505 18.2447 43.0853C20.6912 44.9201 23.3451 45.8375 26.2065 45.8375C27.8884 45.8375 29.4502 45.5099 30.8918 44.8546C32.3553 44.1993 33.4584 43.3474 34.201 42.299C34.7908 41.4908 35.1731 40.6171 35.3478 39.6778C35.5226 38.7386 35.6099 37.57 35.6099 36.172C35.6099 33.9659 35.4898 32.4259 35.2495 31.5522C35.0311 30.6567 34.485 30.0341 33.6113 29.6846C32.7376 29.3133 31.2304 29.0403 29.0898 28.8655V26.998H50.354V28.8655C48.1915 29.0403 46.6843 29.3024 45.8325 29.6519C45.0024 29.9795 44.4454 30.5911 44.1615 31.4867C43.8775 32.3604 43.7355 33.8567 43.7355 35.9754V43.2819C41.9226 44.2212 39.9676 45.0512 37.8707 45.772C35.7956 46.471 33.6877 47.0171 31.5471 47.4102C29.4284 47.8034 27.3314 48 25.2563 48C21.4338 48 17.9826 47.3884 14.9028 46.1652C11.8229 44.942 9.23449 43.2273 7.13756 41.0212C5.04064 38.815 3.45702 36.2703 2.38671 33.387C1.3164 30.5038 0.78125 27.4785 0.78125 24.3113C0.78125 21.2096 1.30548 18.1843 2.35395 15.2355C3.42425 12.2867 4.95326 9.67645 6.94098 7.40478C8.92869 5.11126 11.3205 3.30922 14.1164 1.99863C16.9123 0.666212 19.9813 0 23.3232 0C25.5731 0 28.1615 0.316724 31.0884 0.950171C34.0372 1.58362 35.883 1.90034 36.6256 1.90034C38.657 1.90034 40.0659 1.35427 40.8522 0.262116H43.2441ZM40.0987 9.07577L39.64 3.11263C38.657 3.5058 37.8488 3.70239 37.2154 3.70239C36.7348 3.70239 36.298 3.68055 35.9048 3.63686C35.5116 3.57133 35.0748 3.48396 34.5942 3.37474C34.1137 3.24369 33.7751 3.15631 33.5785 3.11263C35.8065 4.46689 37.9799 6.45461 40.0987 9.07577ZM36.6912 33.813V38.1379C36.6912 39.4703 36.3417 40.7918 35.6427 42.1024C34.9437 43.3911 33.8079 44.4614 32.2352 45.3133C33.9608 44.942 35.2932 44.4177 36.2324 43.7406C37.1935 43.0416 37.8707 42.1461 38.2638 41.0539C38.6789 39.9618 38.8864 38.542 38.8864 36.7945C38.8864 34.6321 38.799 33.0812 38.6243 32.142C38.4714 31.1809 38.0563 30.4382 37.3792 29.914C36.7239 29.3679 35.6645 29.0184 34.201 28.8655C35.0092 29.4553 35.6208 30.0997 36.0359 30.7986C36.4727 31.4758 36.6912 32.4805 36.6912 33.813ZM20.6365 46.8532C18.4741 45.8922 16.6393 44.9529 15.1321 44.0355C13.6249 43.0962 12.085 41.7966 10.5123 40.1365C8.43722 37.9085 6.83176 35.3857 5.69593 32.5679C4.56009 29.7283 3.99217 26.9106 3.99217 24.1147C3.99217 20.8601 4.71299 17.5836 6.15463 14.2853C7.61811 10.987 9.60582 8.14744 12.1178 5.76655C13.3628 4.60887 14.5314 3.72423 15.6236 3.11263C16.7376 2.47918 18.0481 1.82389 19.5553 1.14676C17.9826 1.45256 16.7376 1.79113 15.8202 2.16246C13.9198 2.90512 12.1287 3.99727 10.4468 5.43891C8.78671 6.8587 7.29047 8.59522 5.95804 10.6485C4.62562 12.6799 3.60992 14.8423 2.91094 17.1358C2.21197 19.4075 1.86248 21.7556 1.86248 24.1802C1.86248 27.2382 2.4304 30.2635 3.56623 33.256C4.72391 36.2266 6.31845 38.7386 8.34985 40.7918C9.5949 42.015 10.8618 43.0089 12.1505 43.7734C13.4393 44.516 14.6952 45.1058 15.9185 45.5427C17.1635 45.9577 18.7362 46.3945 20.6365 46.8532Z" fill="white"/>
</g>
</svg>
