<svg xmlns="http://www.w3.org/2000/svg" width="600" height="1039" viewBox="0 0 600 1039" fill="none">
<path d="M157.63 838.25C90.43 838.25 61.89 803.56 51.54 785.44C50.28 773.37 51.64 761.71 55.91 750.59C65.56 725.38 87.95 706.38 109.16 693.25C160.93 731.76 227.28 754.89 299.62 754.89C465.09 754.89 599.22 633.85 599.22 484.56C599.22 374.65 526.47 280.13 422.11 237.87C474.24 224.81 516.49 190.96 527.1 132.64C531.15 121.89 533.46 110.3 533.46 98.13C533.46 43.93 489.53 0 435.34 0C381.15 0 337.21 43.93 337.21 98.13C337.21 149.1 376.08 190.98 425.81 195.77C355.12 216.07 268.03 209.73 234.21 220.77C100.21 247.7 0 355.55 0 484.57C0 565.77 39.73 638.56 102.56 688.12C81.06 701.82 58.8 721.49 48.7 747.82C41.72 766.05 41.6 785.42 47.98 805.63C71.71 1041.87 370.74 977.68 446.38 977.68C525.16 977.68 534.24 1038.28 534.24 1038.28C534.24 1038.28 566.91 1038.25 564.54 962.53C554.94 655.45 248.53 838.25 157.63 838.25ZM386.48 436.94C383.51 441.16 380.4 445.27 377.22 449.33C375.56 451.45 373.87 453.56 372.18 455.64C371.12 456.95 370.1 458.38 368.9 459.54C363.87 464.4 359.11 469.46 355.03 475.14C351.91 479.48 349.05 483.99 346.2 488.51C343.43 492.92 340.71 497.36 337.82 501.68C335.53 505.11 333.15 508.59 330.23 511.52C328.62 513.14 326.27 515.29 323.77 514.89C320.95 514.43 319.6 510.97 318.8 508.63C318.37 507.35 318.02 506.04 317.72 504.73C317.55 503.95 317.38 503.16 317.23 502.38C317.13 501.8 317.16 500.29 316.8 499.86C318.86 502.45 321.79 504.28 324.72 505.77C330.03 488.11 351.81 468.29 367.28 451.85C379.56 438.94 392.14 425.68 401.79 410.34C397.71 419.75 392.38 428.57 386.48 436.94ZM313.34 463.7C323.99 432.72 353.3 418.14 364.16 391.07C367.4 379.31 367.47 364.41 366.43 352.96C365.13 359.8 363.11 368.56 360.13 377.25C356.89 387.8 352.43 397.91 344.88 404.76C337.17 412.5 327.13 415.51 314.18 408.48C340.16 389.07 326.34 329.43 351.01 305.01C367.09 288.01 389.77 284.08 403.34 265.53C403.72 265 404.1 264.46 404.48 263.92C404.49 263.91 404.5 263.89 404.52 263.86C404.77 263.5 405 263.14 405.24 262.76C405.25 262.75 405.25 262.73 405.26 262.73C405.37 262.57 405.47 262.39 405.58 262.22C405.6 262.19 405.61 262.16 405.63 262.12C405.86 261.75 406.07 261.38 406.29 261.01C406.31 260.98 406.33 260.94 406.34 260.91C406.43 260.75 406.51 260.6 406.61 260.45C406.64 260.41 406.66 260.36 406.68 260.33C406.89 259.96 407.09 259.58 407.3 259.19C407.32 259.14 407.35 259.09 407.37 259.05C407.45 258.9 407.53 258.75 407.6 258.59C407.62 258.54 407.65 258.49 407.67 258.45C407.77 258.25 407.86 258.06 407.96 257.86C407.97 257.84 407.98 257.81 407.99 257.8C408.08 257.63 408.16 257.45 408.23 257.27C408.26 257.21 408.28 257.15 408.32 257.09C408.39 256.94 408.47 256.79 408.53 256.64C408.56 256.59 408.58 256.53 408.61 256.48C408.7 256.28 408.79 256.08 408.88 255.88C408.9 255.83 408.92 255.78 408.94 255.74C409.01 255.58 409.07 255.43 409.14 255.27C409.17 255.2 409.2 255.13 409.23 255.06C409.3 254.91 409.36 254.75 409.42 254.59C409.45 254.53 409.46 254.48 409.49 254.43C409.57 254.22 409.65 254.02 409.73 253.81C409.76 253.74 409.78 253.68 409.81 253.62C409.87 253.46 409.93 253.32 409.99 253.16C410.02 253.09 410.05 253 410.08 252.94C410.14 252.77 410.21 252.61 410.26 252.44C410.28 252.39 410.29 252.34 410.31 252.29C410.38 252.08 410.46 251.86 410.53 251.65C410.55 251.57 410.58 251.5 410.6 251.42C410.65 251.27 410.71 251.11 410.76 250.96C410.79 250.88 410.81 250.8 410.85 250.72C410.91 250.52 410.98 250.32 411.04 250.13C411.05 250.1 411.05 250.08 411.07 250.05C413.99 267.08 416.79 284.75 417.99 302.29C419.74 326.05 418.57 349.6 410.28 371.25C408.07 377.18 405.35 382.97 402.05 388.55C381.73 423.3 338 451.77 322.95 484.88C315.48 480.73 312.26 472.17 313.34 463.7ZM195.57 506.47C198.91 502.54 202.39 498.74 205.93 494.99C207.78 493.03 209.65 491.09 211.53 489.17C212.7 487.96 213.85 486.63 215.16 485.59C220.62 481.21 225.82 476.61 230.4 471.33C233.91 467.3 237.17 463.07 240.42 458.82C243.58 454.68 246.7 450.51 249.98 446.47C252.58 443.27 255.27 440.02 258.45 437.37C260.2 435.9 262.74 433.98 265.19 434.61C267.95 435.32 268.98 438.9 269.56 441.3C269.87 442.61 270.1 443.95 270.27 445.29C270.37 446.09 270.46 446.88 270.54 447.68C270.59 448.27 270.42 449.77 270.73 450.23C268.91 447.47 266.17 445.37 263.39 443.62C256.48 460.72 232.97 478.45 216.06 493.4C202.65 505.12 188.9 517.18 177.88 531.56C182.8 522.56 188.93 514.27 195.57 506.47ZM153.43 637.76C153.87 613.94 157.2 590.6 167.45 569.8C170.19 564.09 173.43 558.58 177.24 553.33C200.67 520.6 246.83 496.26 264.86 464.68C271.92 469.48 274.35 478.3 272.49 486.63C259.04 516.5 228.51 528.33 215.21 554.29C210.9 565.7 209.46 580.53 209.44 592.03C211.36 585.34 214.18 576.8 217.94 568.42C222.13 558.21 227.5 548.55 235.65 542.43C244.04 535.43 254.31 533.36 266.56 541.55C238.9 558.49 247.18 619.15 220.38 641.19C202.81 656.65 179.87 658.47 164.64 675.69C164.21 676.18 163.78 676.68 163.36 677.19C163.35 677.2 163.34 677.22 163.31 677.24C163.03 677.58 162.77 677.92 162.5 678.27C162.49 678.28 162.49 678.3 162.48 678.3C162.36 678.45 162.24 678.62 162.11 678.77C162.09 678.8 162.07 678.83 162.05 678.86C161.79 679.21 161.55 679.55 161.29 679.91C161.27 679.94 161.24 679.97 161.23 680C161.13 680.15 161.03 680.3 160.92 680.44C160.89 680.48 160.86 680.53 160.84 680.56C160.6 680.91 160.36 681.27 160.12 681.64C160.1 681.69 160.06 681.73 160.03 681.78C159.94 681.92 159.84 682.06 159.76 682.21C159.74 682.26 159.7 682.3 159.67 682.35C159.55 682.54 159.44 682.72 159.32 682.91C159.31 682.93 159.3 682.96 159.28 682.97C159.18 683.13 159.08 683.3 158.99 683.47C158.95 683.53 158.93 683.59 158.89 683.64C158.81 683.78 158.72 683.93 158.64 684.07C158.61 684.12 158.58 684.17 158.55 684.23C158.45 684.42 158.34 684.61 158.23 684.8C158.21 684.85 158.18 684.89 158.16 684.94C158.07 685.09 158 685.24 157.91 685.39C157.88 685.46 157.84 685.53 157.8 685.59C157.72 685.73 157.64 685.89 157.57 686.04C157.54 686.09 157.52 686.14 157.49 686.2C157.39 686.4 157.3 686.59 157.19 686.8C157.16 686.86 157.13 686.92 157.09 686.98C157.02 687.13 156.94 687.27 156.87 687.42C156.83 687.49 156.8 687.57 156.76 687.63C156.69 687.79 156.6 687.95 156.53 688.12C156.51 688.17 156.49 688.22 156.46 688.26C156.37 688.47 156.27 688.67 156.18 688.88C156.15 688.95 156.11 689.02 156.09 689.1C156.02 689.24 155.96 689.4 155.89 689.55C155.86 689.63 155.82 689.71 155.78 689.78C155.7 689.97 155.61 690.16 155.54 690.35C155.53 690.38 155.52 690.4 155.51 690.43C154.18 673.18 153.01 655.34 153.43 637.76Z" fill="white"/>
</svg>
