<svg width="86" height="84" viewBox="0 0 86 84" fill="none" xmlns="http://www.w3.org/2000/svg">
<g id="Group">
<path id="Vector" d="M66.999 23C69.6515 23 72.1953 21.9464 74.0708 20.0708C75.9464 18.1953 77 15.6515 77 12.999C77 10.3466 75.9464 7.80282 74.0708 5.92727C72.1953 4.05172 69.6515 2.99805 66.999 2.99805C64.3466 2.99805 61.8028 4.05172 59.9273 5.92727C58.0517 7.80282 56.998 10.3466 56.998 12.999C56.998 15.6515 58.0517 18.1953 59.9273 20.0708C61.8028 21.9464 64.3466 23 66.999 23Z" stroke="white" stroke-width="6"/>
<path id="Vector_2" d="M18.9936 26.5406L35.0012 20.9961L56.9974 31.4951L35.0012 47.8908L56.9974 62.3722L43.012 81.0021M65.6383 36.2876L71.0028 39.2059L83 27.9328M28.6926 56.0936L22.752 63.9184L3 74.9995" stroke="white" stroke-width="6" stroke-linecap="round" stroke-linejoin="round"/>
</g>
</svg>
