<svg width="186" height="186" viewBox="0 0 186 186" fill="none" xmlns="http://www.w3.org/2000/svg">
<g clip-path="url(#clip0_260_2292)">
<path fill-rule="evenodd" clip-rule="evenodd" d="M106.083 0.758118C128.699 4.91835 135.496 31.3506 150.364 48.1791C162.997 62.4783 182.601 72.0177 185.411 90.5473C188.527 111.088 178.904 131.059 165.398 147.301C149.916 165.921 130.919 187.157 106.083 185.951C81.6149 184.762 70.335 157.889 52.4991 141.817C33.6109 124.798 2.76007 115.251 0.204106 90.5473C-2.42105 65.1744 20.782 44.9226 40.7243 28.0109C59.2131 12.3318 81.8221 -3.70474 106.083 0.758118Z" fill="#A1C9E8"/>
<path fill-rule="evenodd" clip-rule="evenodd" d="M104.693 7.46548C130.586 5.00268 159.267 12.1516 175.467 32.7637C190.79 52.2596 186.395 80.1702 180.935 104.471C176.731 123.185 163.202 136.634 149.22 149.584C136.138 161.701 122.117 171.798 104.693 175.088C82.5161 179.276 58.542 182.923 39.7676 170.252C17.8207 155.439 -1.27597 131.154 0.0667967 104.471C1.38163 78.3419 27.0169 62.7341 46.0668 45.0718C63.8052 28.6255 80.7538 9.74249 104.693 7.46548Z" fill="#144F7C"/>
<path d="M90.9393 83.9978C93.8819 83.9978 96.2673 81.6124 96.2673 78.6698C96.2673 75.7272 93.8819 73.3418 90.9393 73.3418C87.9968 73.3418 85.6113 75.7272 85.6113 78.6698C85.6113 81.6124 87.9968 83.9978 90.9393 83.9978Z" stroke="white" stroke-width="3" stroke-miterlimit="10" stroke-linecap="round" stroke-linejoin="round"/>
<path d="M96.1914 76.6358L98.1264 58.2612" stroke="white" stroke-width="3" stroke-miterlimit="10" stroke-linecap="round" stroke-linejoin="round"/>
<path d="M102.654 58.75L100.463 87.1632V106.47L112.032 141.795" stroke="white" stroke-width="3" stroke-miterlimit="10" stroke-linecap="round" stroke-linejoin="round"/>
<path d="M106.246 141.795L93.2791 108.082L80.7383 141.795" stroke="white" stroke-width="3" stroke-miterlimit="10" stroke-linecap="round" stroke-linejoin="round"/>
<path d="M75.2383 141.795L85.8589 106.47V92.283" stroke="white" stroke-width="3" stroke-miterlimit="10" stroke-linecap="round" stroke-linejoin="round"/>
<path d="M84.6827 85.2183L76.6823 93.3867C75.2057 94.8943 75.1311 97.2819 76.5107 98.8787L85.1393 108.866" stroke="white" stroke-width="3" stroke-miterlimit="10" stroke-linecap="round" stroke-linejoin="round"/>
<path d="M82.0742 101.528L85.7746 105.971" stroke="white" stroke-width="3" stroke-miterlimit="10" stroke-linecap="round" stroke-linejoin="round"/>
<path d="M94.1819 56.9072C93.5537 60.2958 90.2975 62.5334 86.9091 61.9054L81.8105 60.9602L84.0853 48.6892L89.1839 49.6344C92.5723 50.2624 94.8101 53.5186 94.1819 56.9072Z" stroke="white" stroke-width="3" stroke-miterlimit="10" stroke-linecap="round" stroke-linejoin="round"/>
<path d="M94.1816 56.9072L107.975 59.5536" stroke="white" stroke-width="3" stroke-miterlimit="10" stroke-linecap="round" stroke-linejoin="round"/>
<path d="M107.367 62.8376L108.617 56.0972" stroke="white" stroke-width="3" stroke-miterlimit="10" stroke-linecap="round" stroke-linejoin="round"/>
<path d="M83.5383 61.2808L83.1939 63.1388C82.8887 64.7854 83.9761 66.3676 85.6225 66.6728C87.2691 66.978 88.8513 65.8906 89.1565 64.2442L89.6075 61.8118L91.2799 62.1218C92.3131 62.3134 92.9953 63.3062 92.8039 64.3394" stroke="white" stroke-width="3" stroke-miterlimit="10" stroke-linecap="round" stroke-linejoin="round"/>
<path d="M85.9199 48.4351L86.2643 46.5771C86.5695 44.9305 88.1517 43.8433 89.7983 44.1485C91.4449 44.4537 92.5321 46.0359 92.2269 47.6825L91.7759 50.1149L93.4483 50.4249C94.4815 50.6165 95.4743 49.9341 95.6659 48.9009" stroke="white" stroke-width="3" stroke-miterlimit="10" stroke-linecap="round" stroke-linejoin="round"/>
<path d="M61.9629 62.813L68.6945 68.9516" stroke="white" stroke-width="3" stroke-miterlimit="10" stroke-linecap="round" stroke-linejoin="round"/>
<path d="M54.1211 80.0854L63.0739 81.7714" stroke="white" stroke-width="3" stroke-miterlimit="10" stroke-linecap="round" stroke-linejoin="round"/>
<path d="M122.724 62.813L115.992 68.9516" stroke="white" stroke-width="3" stroke-miterlimit="10" stroke-linecap="round" stroke-linejoin="round"/>
<path d="M130.566 80.0854L121.613 81.7714" stroke="white" stroke-width="3" stroke-miterlimit="10" stroke-linecap="round" stroke-linejoin="round"/>
</g>
<defs>
<clipPath id="clip0_260_2292">
<rect width="186" height="186" fill="white"/>
</clipPath>
</defs>
</svg>
