<svg width="86" height="86" viewBox="0 0 86 86" fill="none" xmlns="http://www.w3.org/2000/svg">
<g id="Group">
<path id="Vector" d="M29.6667 34.1111H29.7111M56.3333 34.1111H56.3778M3 43C3 48.2529 4.03463 53.4543 6.04482 58.3073C8.05501 63.1604 11.0014 67.5699 14.7157 71.2843C18.4301 74.9986 22.8396 77.945 27.6927 79.9552C32.5457 81.9654 37.7471 83 43 83C48.2529 83 53.4543 81.9654 58.3073 79.9552C63.1604 77.945 67.5699 74.9986 71.2843 71.2843C74.9986 67.5699 77.945 63.1604 79.9552 58.3073C81.9654 53.4543 83 48.2529 83 43C83 37.7471 81.9654 32.5457 79.9552 27.6927C77.945 22.8396 74.9986 18.4301 71.2843 14.7157C67.5699 11.0014 63.1604 8.05501 58.3073 6.04482C53.4543 4.03463 48.2529 3 43 3C37.7471 3 32.5457 4.03463 27.6927 6.04482C22.8396 8.05501 18.4301 11.0014 14.7157 14.7157C11.0014 18.4301 8.05501 22.8396 6.04482 27.6927C4.03463 32.5457 3 37.7471 3 43Z" stroke="white" stroke-width="6" stroke-linecap="round" stroke-linejoin="round"/>
<path id="Vector_2" d="M25.2207 60.7785L34.1096 51.8896L42.9985 60.7785L51.8874 51.8896L60.7763 60.7785" stroke="white" stroke-width="6" stroke-linecap="round" stroke-linejoin="round"/>
</g>
</svg>
