<svg width="186" height="186" viewBox="0 0 186 186" fill="none" xmlns="http://www.w3.org/2000/svg">
<g clip-path="url(#clip0_260_2318)">
<path fill-rule="evenodd" clip-rule="evenodd" d="M90.6055 1.44508C120.729 -1.05558 158.488 -2.97172 175.553 19.6857C192.357 41.9973 161.678 69.731 162.382 96.7454C163.125 125.256 200.56 156.228 179.668 177.538C159.068 198.55 121.222 174.355 90.6055 169.957C67.7912 166.68 43.1287 169.399 25.8947 155.448C7.89063 140.873 1.23576 118.614 0.168887 96.7454C-0.955728 73.6931 3.30676 50.0944 19.9019 32.6068C37.6728 13.8801 63.4799 3.69687 90.6055 1.44508Z" fill="#A1C9E8"/>
<path fill-rule="evenodd" clip-rule="evenodd" d="M180.117 72.27C189.215 95.2961 187.022 123.359 172.092 143.342C157.723 162.574 130.841 163.244 107.504 169.459C82.2243 176.192 54.3718 194.921 32.8128 180.436C11.3048 165.986 20.8636 133.352 16.1074 108.053C11.6044 84.101 -4.92664 60.3061 6.11519 38.4306C17.7382 15.4036 44.5894 1.23223 70.5673 0.159318C93.8654 -0.802909 109.295 20.635 128.642 33.3701C147.333 45.6739 171.946 51.5897 180.117 72.27Z" fill="#144F7C"/>
<path d="M133.969 59.2996C143.592 68.9388 143.579 84.5536 133.939 94.1764L93.1724 134.874L69.3184 110.98" stroke="white" stroke-width="3" stroke-miterlimit="10" stroke-linecap="round" stroke-linejoin="round"/>
<path d="M64.677 106.101L52.474 94.1072C42.8512 84.4682 42.8646 68.8532 52.5036 59.2304C62.1426 49.6076 77.7576 49.6208 87.3804 59.26L93.2312 65.1208L99.0918 59.27C107.224 51.1518 119.609 49.892 129.061 55.4842" stroke="white" stroke-width="3" stroke-miterlimit="10" stroke-linecap="round" stroke-linejoin="round"/>
<path d="M118.119 82.8401L81.7513 104.126C80.2985 104.977 78.4313 104.488 77.5809 103.035L73.2989 95.7193C72.4485 94.2665 72.9369 92.3993 74.3899 91.5489L110.758 70.2627C112.211 69.4123 114.078 69.9007 114.928 71.3537L119.21 78.6697C120.06 80.1227 119.572 81.9899 118.119 82.8401Z" stroke="white" stroke-width="3" stroke-miterlimit="10" stroke-linecap="round" stroke-linejoin="round"/>
<path d="M84.1544 95.2971C84.7834 95.2971 85.2932 94.7873 85.2932 94.1583C85.2932 93.5294 84.7834 93.0195 84.1544 93.0195C83.5255 93.0195 83.0156 93.5294 83.0156 94.1583C83.0156 94.7873 83.5255 95.2971 84.1544 95.2971Z" fill="white"/>
<path d="M78.9279 95.513C79.5568 95.513 80.0667 95.0031 80.0667 94.3742C80.0667 93.7452 79.5568 93.2354 78.9279 93.2354C78.2989 93.2354 77.7891 93.7452 77.7891 94.3742C77.7891 95.0031 78.2989 95.513 78.9279 95.513Z" fill="white"/>
<path d="M81.4064 99.7473C82.0353 99.7473 82.5452 99.2375 82.5452 98.6085C82.5452 97.9796 82.0353 97.4697 81.4064 97.4697C80.7774 97.4697 80.2676 97.9796 80.2676 98.6085C80.2676 99.2375 80.7774 99.7473 81.4064 99.7473Z" fill="white"/>
<path d="M85 86L92 97" stroke="white" stroke-width="3" stroke-miterlimit="10" stroke-linecap="round" stroke-linejoin="round"/>
<path d="M108.328 81.1475C108.957 81.1475 109.467 80.6376 109.467 80.0087C109.467 79.3797 108.957 78.8699 108.328 78.8699C107.699 78.8699 107.189 79.3797 107.189 80.0087C107.189 80.6376 107.699 81.1475 108.328 81.1475Z" fill="white"/>
<path d="M111.076 76.6973C111.705 76.6973 112.215 76.1874 112.215 75.5585C112.215 74.9295 111.705 74.4197 111.076 74.4197C110.447 74.4197 109.938 74.9295 109.938 75.5585C109.938 76.1874 110.447 76.6973 111.076 76.6973Z" fill="white"/>
<path d="M113.555 80.9314C114.184 80.9314 114.694 80.4216 114.694 79.7926C114.694 79.1637 114.184 78.6538 113.555 78.6538C112.926 78.6538 112.416 79.1637 112.416 79.7926C112.416 80.4216 112.926 80.9314 113.555 80.9314Z" fill="white"/>
<path d="M100 77L107 88" stroke="white" stroke-width="3" stroke-miterlimit="10" stroke-linecap="round" stroke-linejoin="round"/>
<path d="M117.125 75.1071L123.877 71.1007L122.877 65.5007L128.677 64.1007L129.077 55.5007" stroke="white" stroke-width="3" stroke-miterlimit="10" stroke-linecap="round" stroke-linejoin="round"/>
<path d="M75.4807 99.4456L69.5295 99.7472L70.6777 103.901L64.6777 106.101" stroke="white" stroke-width="3" stroke-miterlimit="10" stroke-linecap="round" stroke-linejoin="round"/>
</g>
<defs>
<clipPath id="clip0_260_2318">
<rect width="186" height="186" fill="white"/>
</clipPath>
</defs>
</svg>
