<svg width="25" height="24" viewBox="0 0 25 24" fill="none" xmlns="http://www.w3.org/2000/svg">
<g id="icon/whatsapp">
<path id="vector" d="M12.5377 3.29053C7.59761 3.29053 3.57723 7.16285 3.57548 11.9218C3.57432 13.4437 3.98774 14.929 4.77161 16.2372L3.5 20.7099L8.25142 19.5097C9.57309 20.2011 11.0427 20.5617 12.5343 20.5607H12.5377C17.4779 20.5607 21.4983 16.6878 21.5 11.9288C21.5012 9.62362 20.5698 7.45375 18.8772 5.82272C17.1852 4.19111 14.9352 3.29111 12.5377 3.29053ZM12.5377 19.1027H12.5348C11.1982 19.1027 9.8871 18.7566 8.74323 18.1028L8.47032 17.9472L5.65187 18.659L6.40439 16.0113L6.22729 15.7401C5.48343 14.6056 5.08745 13.2784 5.08806 11.9218C5.08981 7.96588 8.432 4.74853 12.5406 4.74853C14.5299 4.74911 16.4002 5.4964 17.8071 6.85221C19.214 8.20801 19.988 10.0109 19.9868 11.9282C19.9851 15.8841 16.6435 19.1027 12.5372 19.1027H12.5377ZM16.6237 13.7288C16.3996 13.6214 15.2987 13.0994 15.0932 13.0268C14.8882 12.9554 14.739 12.9182 14.5897 13.1342C14.4411 13.3502 14.0114 13.8362 13.8814 13.9796C13.7501 14.1236 13.6195 14.141 13.3954 14.0336C13.1712 13.9256 12.4495 13.698 11.5948 12.9629C10.9288 12.3916 10.4794 11.6855 10.3487 11.4689C10.2181 11.2535 10.3348 11.1368 10.4468 11.0294C10.5473 10.9336 10.671 10.7779 10.7825 10.6519C10.8939 10.5259 10.9311 10.4359 11.0066 10.2919C11.0809 10.1485 11.0437 10.0219 10.9874 9.91453C10.9311 9.80595 10.484 8.74453 10.2965 8.31311C10.1153 7.89272 9.93064 7.94904 9.79303 7.94208C9.66239 7.93627 9.51374 7.93453 9.36335 7.93453C9.21529 7.93453 8.972 7.98853 8.76645 8.20453C8.56148 8.42053 7.98258 8.94195 7.98258 10.0034C7.98258 11.0654 8.78503 12.0908 8.8971 12.2348C9.00916 12.3782 10.4765 14.5574 12.723 15.4922C13.2572 15.7134 13.6741 15.8464 13.9998 15.9463C14.5363 16.1106 15.0246 16.0868 15.4102 16.0316C15.8399 15.9695 16.7352 15.5102 16.921 15.0068C17.108 14.5034 17.108 14.0714 17.0523 13.9814C16.9977 13.8914 16.8479 13.8374 16.6237 13.7288Z" fill="white"/>
</g>
</svg>
